<?xml version="1.0" encoding="UTF-8" standalone="no"?>
<!-- Created with Inkscape (http://www.inkscape.org/) -->

<svg
   width="72mm"
   height="40mm"
   viewBox="0 0 72 40"
   version="1.2"
   id="svg5"
   inkscape:version="1.2.2 (b0a8486541, 2022-12-01)"
   sodipodi:docname="label_template.svg"
   inkscape:export-filename="../../tmp/root_label.png"
   inkscape:export-xdpi="96"
   inkscape:export-ydpi="96"
   xmlns:inkscape="http://www.inkscape.org/namespaces/inkscape"
   xmlns:sodipodi="http://sodipodi.sourceforge.net/DTD/sodipodi-0.dtd"
   xmlns="http://www.w3.org/2000/svg"
   xmlns:svg="http://www.w3.org/2000/svg">
  <sodipodi:namedview
     id="namedview7"
     pagecolor="#505050"
     bordercolor="#eeeeee"
     borderopacity="1"
     inkscape:showpageshadow="0"
     inkscape:pageopacity="1"
     inkscape:pagecheckerboard="0"
     inkscape:deskcolor="#50413b"
     inkscape:document-units="mm"
     showgrid="false"
     showguides="false"
     inkscape:zoom="6.2039283"
     inkscape:cx="125.88798"
     inkscape:cy="27.240805"
     inkscape:window-width="2544"
     inkscape:window-height="1008"
     inkscape:window-x="6"
     inkscape:window-y="62"
     inkscape:window-maximized="0"
     inkscape:current-layer="layer1">
    <sodipodi:guide
       position="2.1718699,23.287527"
       orientation="1,0"
       id="guide9798"
       inkscape:locked="false" />
    <sodipodi:guide
       position="20.606331,14.728086"
       orientation="0,-1"
       id="guide2345"
       inkscape:locked="false" />
  </sodipodi:namedview>
  <defs
     id="defs2">
    <symbol
       id="hourglass">
      <title
         id="hourglass-title">Hourglass</title>
      <path
         d="m 360,64 c 13.255,0 24,-10.745 24,-24 V 24 C 384,10.745 373.255,0 360,0 H 24 C 10.745,0 0,10.745 0,24 V 40 C 0,53.255 10.745,64 24,64 24,154.965 75.016,231.734 144.842,256 75.016,280.266 24,357.035 24,448 10.745,448 0,458.745 0,472 v 16 c 0,13.255 10.745,24 24,24 h 336 c 13.255,0 24,-10.745 24,-24 V 472 C 384,458.745 373.255,448 360,448 360,357.035 308.984,280.266 239.158,256 308.984,231.734 360,154.965 360,64 Z"
         id="path5603" />
    </symbol>
    <symbol
       id="users">
      <title
         id="users-title">Users</title>
      <path
         d="m 220,164 c 0,-55.229 44.772,-100 100,-100 55.228,0 100,44.771 100,100 0,55.229 -44.772,100 -100,100 -55.228,0 -100,-44.771 -100,-100 z M 48,208 c 0,-44.183 35.817,-80 80,-80 44.183,0 80,35.817 80,80 0,44.183 -35.817,80 -80,80 -44.183,0 -80,-35.817 -80,-80 z m 384,0 c 0,-44.183 35.817,-80 80,-80 44.183,0 80,35.817 80,80 0,44.183 -35.817,80 -80,80 -44.183,0 -80,-35.817 -80,-80 z m -22,76 c 38.66,0 70,31.34 70,70 v 70 c 0,13.255 -10.745,24 -24,24 H 184 c -13.255,0 -24,-10.745 -24,-24 v -70 c 0,-38.66 31.34,-70 70,-70 h 17.848 c 44.364,26.687 99.93,26.693 144.305,0 H 410 m -282,70 c 0,-11.975 2.081,-23.472 5.889,-34.156 C 111.959,320.996 89.767,315.723 70.278,304 H 56 C 25.072,304 0,329.072 0,360 v 32 c 0,13.255 10.745,24 24,24 h 104 z m 456,-50 h -14.278 c -19.495,11.727 -41.686,16.996 -63.611,15.844 A 101.542,101.542 0 0 1 512,354 v 62 h 104 c 13.255,0 24,-10.745 24,-24 v -32 c 0,-30.928 -25.072,-56 -56,-56 z"
         id="path6507" />
    </symbol>
    <symbol
       id="tags">
      <title
         id="tags-title">tags</title>
      <path
         d="M 497.941,225.941 286.059,14.059 A 48,48 0 0 0 252.118,0 H 48 C 21.49,0 0,21.49 0,48 v 204.118 a 48,48 0 0 0 14.059,33.941 l 211.882,211.882 c 18.744,18.745 49.136,18.746 67.882,0 L 497.941,293.823 c 18.745,-18.745 18.745,-49.137 0,-67.882 z M 112,160 c -26.51,0 -48,-21.49 -48,-48 0,-26.51 21.49,-48 48,-48 26.51,0 48,21.49 48,48 0,26.51 -21.49,48 -48,48 z M 625.941,293.823 421.823,497.941 c -18.745,18.745 -49.137,18.745 -67.882,0 l -0.36,-0.36 174.059,-174.059 c 16.999,-16.999 26.36,-39.6 26.36,-63.64 0,-24.04 -9.362,-46.641 -26.36,-63.64 L 331.397,0 h 48.721 a 48,48 0 0 1 33.941,14.059 l 211.882,211.882 c 18.745,18.745 18.745,49.137 0,67.882 z"
         id="path6307" />
    </symbol>
    <symbol
       id="cogs">
      <title
         id="cogs-title">cogs</title>
      <path
         d="m 512.1,191 -8.2,14.3 c -3,5.3 -9.4,7.5 -15.1,5.4 -11.8,-4.4 -22.6,-10.7 -32.1,-18.6 -4.6,-3.8 -5.8,-10.5 -2.8,-15.7 l 8.2,-14.3 c -6.9,-8 -12.3,-17.3 -15.9,-27.4 h -16.5 c -6,0 -11.2,-4.3 -12.2,-10.3 -2,-12 -2.1,-24.6 0,-37.1 1,-6 6.2,-10.4 12.2,-10.4 h 16.5 c 3.6,-10.1 9,-19.4 15.9,-27.4 l -8.2,-14.3 c -3,-5.2 -1.9,-11.9 2.8,-15.7 9.5,-7.9 20.4,-14.2 32.1,-18.6 5.7,-2.1 12.1,0.1 15.1,5.4 l 8.2,14.3 c 10.5,-1.9 21.2,-1.9 31.7,0 L 552,6.3 c 3,-5.3 9.4,-7.5 15.1,-5.4 11.8,4.4 22.6,10.7 32.1,18.6 4.6,3.8 5.8,10.5 2.8,15.7 l -8.2,14.3 c 6.9,8 12.3,17.3 15.9,27.4 h 16.5 c 6,0 11.2,4.3 12.2,10.3 2,12 2.1,24.6 0,37.1 -1,6 -6.2,10.4 -12.2,10.4 h -16.5 c -3.6,10.1 -9,19.4 -15.9,27.4 l 8.2,14.3 c 3,5.2 1.9,11.9 -2.8,15.7 -9.5,7.9 -20.4,14.2 -32.1,18.6 -5.7,2.1 -12.1,-0.1 -15.1,-5.4 L 543.8,191 c -10.4,1.9 -21.2,1.9 -31.7,0 z M 501.6,132.2 C 540.1,161.8 584,117.9 554.4,79.4 515.9,49.7 472,93.7 501.6,132.2 Z M 386.3,286.1 420,302.9 c 10.1,5.8 14.5,18.1 10.5,29.1 -8.9,24.2 -26.4,46.4 -42.6,65.8 -7.4,8.9 -20.2,11.1 -30.3,5.3 l -29.1,-16.8 c -16,13.7 -34.6,24.6 -54.9,31.7 v 33.6 c 0,11.6 -8.3,21.6 -19.7,23.6 -24.6,4.2 -50.4,4.4 -75.9,0 -11.5,-2 -20,-11.9 -20,-23.6 V 418 c -20.3,-7.2 -38.9,-18 -54.9,-31.7 L 74,403 C 64,408.8 51.1,406.6 43.7,397.7 27.5,378.3 10.4,356.1 1.5,332 -2.5,321.1 1.9,308.8 12,302.9 l 33.3,-16.8 c -3.9,-20.9 -3.9,-42.4 0,-63.4 L 12,205.8 C 1.9,200 -2.6,187.7 1.5,176.8 10.4,152.6 27.5,130.4 43.7,111 51.1,102.1 63.9,99.9 74,105.7 l 29.1,16.8 c 16,-13.7 34.6,-24.6 54.9,-31.7 V 57.1 c 0,-11.5 8.2,-21.5 19.6,-23.5 24.6,-4.2 50.5,-4.4 76,-0.1 11.5,2 20,11.9 20,23.6 v 33.6 c 20.3,7.2 38.9,18 54.9,31.7 l 29.1,-16.8 c 10,-5.8 22.9,-3.6 30.3,5.3 16.2,19.4 33.2,41.6 42.1,65.8 4,10.9 0.1,23.2 -10,29.1 l -33.7,16.8 c 3.9,21 3.9,42.5 0,63.5 z M 268.7,307.2 C 327.9,230.2 240,142.3 163,201.5 c -59.2,77 28.7,164.9 105.7,105.7 z m 243.4,182.7 -8.2,14.3 c -3,5.3 -9.4,7.5 -15.1,5.4 -11.8,-4.4 -22.6,-10.7 -32.1,-18.6 -4.6,-3.8 -5.8,-10.5 -2.8,-15.7 l 8.2,-14.3 c -6.9,-8 -12.3,-17.3 -15.9,-27.4 h -16.5 c -6,0 -11.2,-4.3 -12.2,-10.3 -2,-12 -2.1,-24.6 0,-37.1 1,-6 6.2,-10.4 12.2,-10.4 h 16.5 c 3.6,-10.1 9,-19.4 15.9,-27.4 l -8.2,-14.3 c -3,-5.2 -1.9,-11.9 2.8,-15.7 9.5,-7.9 20.4,-14.2 32.1,-18.6 5.7,-2.1 12.1,0.1 15.1,5.4 l 8.2,14.3 c 10.5,-1.9 21.2,-1.9 31.7,0 l 8.2,-14.3 c 3,-5.3 9.4,-7.5 15.1,-5.4 11.8,4.4 22.6,10.7 32.1,18.6 4.6,3.8 5.8,10.5 2.8,15.7 l -8.2,14.3 c 6.9,8 12.3,17.3 15.9,27.4 h 16.5 c 6,0 11.2,4.3 12.2,10.3 2,12 2.1,24.6 0,37.1 -1,6 -6.2,10.4 -12.2,10.4 h -16.5 c -3.6,10.1 -9,19.4 -15.9,27.4 l 8.2,14.3 c 3,5.2 1.9,11.9 -2.8,15.7 -9.5,7.9 -20.4,14.2 -32.1,18.6 -5.7,2.1 -12.1,-0.1 -15.1,-5.4 l -8.2,-14.3 c -10.4,1.9 -21.2,1.9 -31.7,0 z M 501.6,431 c 38.5,29.6 82.4,-14.3 52.8,-52.8 -38.5,-29.6 -82.4,14.3 -52.8,52.8 z"
         id="path5203" />
    </symbol>
    <symbol
       id="star">
      <title
         id="star-title">Star</title>
      <path
         d="M 259.3,17.8 194,150.2 47.9,171.5 c -26.2,3.8 -36.7,36.1 -17.7,54.6 l 105.7,103 -25,145.5 c -4.5,26.3 23.2,46 46.4,33.7 L 288,439.6 418.7,508.3 c 23.2,12.2 50.9,-7.4 46.4,-33.7 l -25,-145.5 105.7,-103 c 19,-18.5 8.5,-50.8 -17.7,-54.6 L 382,150.2 316.7,17.8 C 305,-5.8 271.1,-6.1 259.3,17.8 Z"
         id="path6219" />
    </symbol>
    <symbol
       id="star-half">
      <title
         id="star-half-title">star-half</title>
      <path
         d="M 288,0 C 276.6,0 265.2,5.9 259.3,17.8 L 194,150.2 47.9,171.4 C 21.7,175.2 11.2,207.5 30.2,226 l 105.7,103 -25,145.5 c -4.5,26.1 23,46 46.4,33.7 L 288,439.6 Z"
         id="path6223" />
    </symbol>
    <symbol
       id="lightbulb">
      <title
         id="lightbulb-title">Lightbulb</title>
      <path
         d="m 272,428 v 28 c 0,10.449 -6.68,19.334 -16,22.629 V 488 c 0,13.255 -10.745,24 -24,24 h -80 c -13.255,0 -24,-10.745 -24,-24 v -9.371 C 118.68,475.334 112,466.449 112,456 v -28 c 0,-6.627 5.373,-12 12,-12 h 136 c 6.627,0 12,5.373 12,12 z M 128.893,384 c -9.907,0 -18.826,-6.078 -22.376,-15.327 C 67.697,267.541 16,277.731 16,176 16,78.803 94.805,0 192,0 c 97.195,0 176,78.803 176,176 0,101.731 -51.697,91.541 -90.516,192.673 -3.55,9.249 -12.47,15.327 -22.376,15.327 z M 112,176 c 0,-44.112 35.888,-80 80,-80 8.837,0 16,-7.164 16,-16 0,-8.836 -7.163,-16 -16,-16 -61.757,0 -112,50.243 -112,112 0,8.836 7.164,16 16,16 8.836,0 16,-7.164 16,-16 z"
         id="path5699" />
    </symbol>
    <symbol
       id="exclamation-triangle">
      <title
         id="exclamation-triangle-title">Exclamation Triangle</title>
      <path
         d="M 569.517,440.013 C 587.975,472.007 564.806,512 527.94,512 H 48.054 C 11.117,512 -11.945,471.945 6.477,440.013 L 246.423,23.985 c 18.467,-32.009 64.72,-31.951 83.154,0 z M 288,354 c -25.405,0 -46,20.595 -46,46 0,25.405 20.595,46 46,46 25.405,0 46,-20.595 46,-46 0,-25.405 -20.595,-46 -46,-46 z m -43.673,-165.346 7.418,136 c 0.347,6.364 5.609,11.346 11.982,11.346 h 48.546 c 6.373,0 11.635,-4.982 11.982,-11.346 l 7.418,-136 C 332.048,181.78 326.575,176 319.691,176 h -63.383 c -6.884,0 -12.356,5.78 -11.981,12.654 z"
         id="path5335" />
    </symbol>
    <symbol
       id="certificate">
      <title
         id="certificate-title">certificate</title>
      <path
         d="m 458.622,255.92 45.985,-45.005 c 13.708,-12.977 7.316,-36.039 -10.664,-40.339 l -62.65,-15.99 17.661,-62.015 C 453.945,74.733 437.125,57.908 419.293,62.9 L 357.299,80.567 341.315,17.896 C 337.085,0.197 313.765,-6.276 300.99,7.228 L 256,53.57 211.011,7.229 C 198.381,-6.122 174.964,-0.005 170.686,17.897 L 154.702,80.568 92.707,62.901 C 74.87,57.907 58.056,74.738 63.046,92.572 l 17.661,62.015 -62.65,15.99 C 0.069,174.878 -6.31,197.944 7.392,210.915 L 53.377,255.92 7.392,300.924 c -13.708,12.977 -7.316,36.039 10.664,40.339 l 62.65,15.99 -17.661,62.015 c -4.991,17.838 11.829,34.663 29.661,29.671 l 61.994,-17.667 15.984,62.671 c 4.439,18.575 27.696,24.018 40.325,10.668 L 256,458.61 l 44.989,46.001 c 12.5,13.488 35.987,7.486 40.325,-10.668 l 15.984,-62.671 61.994,17.667 c 17.836,4.994 34.651,-11.837 29.661,-29.671 l -17.661,-62.015 62.65,-15.99 c 17.987,-4.302 24.366,-27.367 10.664,-40.339 z"
         id="path5083" />
    </symbol>
    <symbol
       id="thumbs-up">
      <title
         id="thumbs-up-title">thumbs-up</title>
      <path
         d="M 104,224 H 24 C 10.745,224 0,234.745 0,248 v 240 c 0,13.255 10.745,24 24,24 h 80 c 13.255,0 24,-10.745 24,-24 V 248 c 0,-13.255 -10.745,-24 -24,-24 z M 64,472 c -13.255,0 -24,-10.745 -24,-24 0,-13.255 10.745,-24 24,-24 13.255,0 24,10.745 24,24 0,13.255 -10.745,24 -24,24 z M 384,81.452 c 0,42.416 -25.97,66.208 -33.277,94.548 h 101.723 c 33.397,0 59.397,27.746 59.553,58.098 0.084,17.938 -7.546,37.249 -19.439,49.197 l -0.11,0.11 c 9.836,23.337 8.237,56.037 -9.308,79.469 8.681,25.895 -0.069,57.704 -16.382,74.757 4.298,17.598 2.244,32.575 -6.148,44.632 C 440.202,511.587 389.616,512 346.839,512 l -2.845,-10e-4 C 295.707,511.982 256.188,494.401 224.434,480.274 208.477,473.175 187.613,464.387 171.783,464.096 165.243,463.976 160,458.639 160,452.098 v -213.77 c 0,-3.2 1.282,-6.271 3.558,-8.521 39.614,-39.144 56.648,-80.587 89.117,-113.111 C 267.479,101.864 272.863,79.46 278.068,57.794 282.515,39.293 291.817,0 312,0 c 24,0 72,8 72,81.452 z"
         id="path96695" />
    </symbol>
  </defs>
  <g
     inkscape:groupmode="layer"
     id="layer2"
     inkscape:label="bg-layer"
     sodipodi:insensitive="true">
    <rect
       style="display:inline;fill:#ffffff;fill-opacity:1;stroke:#000000;stroke-width:0.294967;stroke-dasharray:none;stroke-opacity:1;stop-color:#000000"
       id="rect8187"
       width="71.705032"
       height="39.705032"
       x="0.14748357"
       y="0.14748357"
       inkscape:label="background" />
  </g>
  <g
     inkscape:label="content-layer"
     inkscape:groupmode="layer"
     id="layer1"
     transform="translate(-24.054968,-28.574566)">
    <g
       id="g395"
       inkscape:label="time-group"
       transform="matrix(0.90025042,0,0,0.90025042,2.6821029,5.9557648)">
      <text
         xml:space="preserve"
         x="31.955069"
         y="44.460495"
         id="text8033-0"
         inkscape:label="time-text"><tspan
           sodipodi:role="line"
           id="tspan8031-1"
           style="font-style:normal;font-variant:normal;font-weight:bold;font-stretch:normal;font-size:5.29167px;font-family:Roboto;-inkscape-font-specification:'Roboto Bold';stroke-width:0.16899"
           x="31.955069"
           y="44.460495">120-180 min</tspan></text>
      <path
         d="m 360,64 c 13.255,0 24,-10.745 24,-24 V 24 C 384,10.745 373.255,0 360,0 H 24 C 10.745,0 0,10.745 0,24 V 40 C 0,53.255 10.745,64 24,64 24,154.965 75.016,231.734 144.842,256 75.016,280.266 24,357.035 24,448 10.745,448 0,458.745 0,472 v 16 c 0,13.255 10.745,24 24,24 h 336 c 13.255,0 24,-10.745 24,-24 V 472 C 384,458.745 373.255,448 360,448 360,357.035 308.984,280.266 239.158,256 308.984,231.734 360,154.965 360,64 Z"
         id="path478"
         inkscape:label="time-icon"
         style="fill:#000000;stroke:none"
         transform="matrix(0.00976563,0,0,0.00976563,27.075695,40.062689)" />
    </g>
    <g
       id="g467"
       inkscape:label="tags-group"
       transform="matrix(0.91736094,0,0,0.91736094,0.97756965,-0.74599262)">
      <path
         d="M 497.941,225.941 286.059,14.059 A 48,48 0 0 0 252.118,0 H 48 C 21.49,0 0,21.49 0,48 v 204.118 a 48,48 0 0 0 14.059,33.941 l 211.882,211.882 c 18.744,18.745 49.136,18.746 67.882,0 L 497.941,293.823 c 18.745,-18.745 18.745,-49.137 0,-67.882 z M 112,160 c -26.51,0 -48,-21.49 -48,-48 0,-26.51 21.49,-48 48,-48 26.51,0 48,21.49 48,48 0,26.51 -21.49,48 -48,48 z M 625.941,293.823 421.823,497.941 c -18.745,18.745 -49.137,18.745 -67.882,0 l -0.36,-0.36 174.059,-174.059 c 16.999,-16.999 26.36,-39.6 26.36,-63.64 0,-24.04 -9.362,-46.641 -26.36,-63.64 L 331.397,0 h 48.721 a 48,48 0 0 1 33.941,14.059 l 211.882,211.882 c 18.745,18.745 18.745,49.137 0,67.882 z"
         id="path471"
         inkscape:label="tags-icon"
         style="fill:#000000;stroke:none"
         transform="matrix(0.00927123,0,0,0.00927123,27.52381,62.211903)" />
      <text
         xml:space="preserve"
         x="34.38995"
         y="65.470726"
         id="text1121"
         inkscape:label="tags-text"
         style="-inkscape-font-specification:'Roboto Bold';font-family:Roboto;font-weight:bold;font-style:normal;font-stretch:normal;font-variant:normal"><tspan
           sodipodi:role="line"
           id="tspan1119"
           style="font-style:normal;font-variant:normal;font-weight:bold;font-stretch:normal;font-size:3.52778px;font-family:Roboto;-inkscape-font-specification:'Roboto Bold';font-variant-ligatures:normal;font-variant-caps:normal;font-variant-numeric:normal;font-variant-east-asian:normal;stroke-width:0.165896"
           x="34.38995"
           y="65.470726">Wargame, Historical, Foo, Bar, Baz, Taaaaag`</tspan></text>
    </g>
    <g
       id="g414"
       inkscape:label="avgscore-group"
       transform="matrix(0.78822442,0,0,0.78822442,28.83372,12.000244)">
      <path
         id="path424"
         d="m 63.842615,47.739097 c -0.109943,-3.61e-4 -0.219932,0.05642 -0.276772,0.171548 l -0.629436,1.275453 -1.407462,0.205348 c -0.252413,0.03661 -0.353321,0.347893 -0.170273,0.526124 l 1.018449,0.992302 -0.24106,1.401722 c -0.04335,0.253377 0.223535,0.443102 0.447046,0.324603 l 1.258872,-0.66196 1.259508,0.66196 c 0.223511,0.117533 0.4904,-0.07123 0.447046,-0.324603 l -0.24106,-1.401722 1.018449,-0.992302 c 0.183048,-0.178231 0.08214,-0.489514 -0.170273,-0.526124 l -1.4081,-0.205348 -0.628798,-1.275453 c -0.05636,-0.113683 -0.166186,-0.171187 -0.276136,-0.171548 z"
         style="fill:#000000;stroke:none;stroke-width:0.00963409"
         inkscape:label="avgscore-icon"
         sodipodi:nodetypes="scccccccccccccccs" />
      <text
         xml:space="preserve"
         x="66.980988"
         y="52.424702"
         id="text116422"
         inkscape:label="avgscore-text"
         inkscape:transform-center-x="-4.5717451"
         inkscape:transform-center-y="-2.5412326"
         style="font-size:7.05556px;stroke-width:0.599228"><tspan
           sodipodi:role="line"
           id="tspan116420"
           style="font-style:normal;font-variant:normal;font-weight:bold;font-stretch:normal;font-size:7.05556px;font-family:Roboto;-inkscape-font-specification:'Roboto Bold';stroke-width:0.0994099"
           x="66.980988"
           y="52.424702">8.5</tspan></text>
    </g>
    <g
       id="g407"
       inkscape:label="weight-group"
       transform="matrix(0.90025042,0,0,0.90025042,1.8231626,13.493599)"
       style="fill:#ffffff">
      <rect
         style="fill:#ff6600;fill-opacity:1;stroke-width:0.274783"
         id="rect306"
         width="79.311264"
         height="7.4423738"
         x="25.028376"
         y="53.408436"
         inkscape:label="weight-bg" />
      <path
         d="m 32.471447,56.510462 -0.09637,0.168055 c -0.03526,0.06229 -0.110473,0.08814 -0.177456,0.06347 -0.138674,-0.05171 -0.265597,-0.125747 -0.377242,-0.21859 -0.05405,-0.04466 -0.06817,-0.123396 -0.03291,-0.184507 l 0.09637,-0.168055 c -0.0811,-0.09401 -0.14455,-0.203311 -0.186858,-0.322007 h -0.193909 c -0.07051,0 -0.131623,-0.05054 -0.143376,-0.121046 -0.02351,-0.141025 -0.02468,-0.289101 0,-0.436002 0.01181,-0.07051 0.07287,-0.122223 0.143376,-0.122223 h 0.193909 c 0.0423,-0.118691 0.105774,-0.22799 0.186858,-0.322007 l -0.09637,-0.168054 c -0.03526,-0.06112 -0.02233,-0.13985 0.03291,-0.184508 0.111642,-0.09284 0.239742,-0.16688 0.377242,-0.218589 0.06699,-0.02468 0.142201,0.0012 0.177456,0.06345 l 0.09637,0.168055 c 0.123397,-0.02233 0.249144,-0.02233 0.372541,0 l 0.09637,-0.168055 c 0.03526,-0.06229 0.110473,-0.08814 0.177456,-0.06345 0.138674,0.05171 0.265597,0.125747 0.377241,0.218589 0.05405,0.04466 0.06817,0.123397 0.03291,0.184508 l -0.09637,0.168054 c 0.0811,0.09401 0.144551,0.203312 0.18686,0.322007 h 0.193908 c 0.07051,0 0.131624,0.05054 0.143376,0.121048 0.02351,0.141024 0.02467,0.2891 0,0.436001 -0.01181,0.07051 -0.07287,0.122222 -0.143376,0.122222 h -0.193908 c -0.0423,0.118692 -0.105774,0.227991 -0.18686,0.322007 l 0.09637,0.168055 c 0.03526,0.06111 0.02233,0.13985 -0.03291,0.184507 -0.111642,0.09284 -0.239742,0.166881 -0.377241,0.21859 -0.06699,0.02468 -0.1422,-0.0012 -0.177456,-0.06347 l -0.09637,-0.168055 c -0.122222,0.02233 -0.249144,0.02233 -0.372541,0 z M 32.34805,55.81944 c 0.452455,0.347861 0.968372,-0.168055 0.62051,-0.620511 -0.452455,-0.349037 -0.968371,0.168055 -0.62051,0.620511 z m -1.355016,1.808646 0.396046,0.197435 c 0.118691,0.06817 0.170405,0.212713 0.123397,0.341984 -0.104593,0.284401 -0.310256,0.545298 -0.500638,0.773289 -0.08696,0.104593 -0.237393,0.130448 -0.356089,0.06229 l -0.341986,-0.197435 c -0.188033,0.161003 -0.406621,0.2891 -0.64519,0.372541 v 0.394869 c 0,0.136325 -0.09754,0.253845 -0.231514,0.277349 -0.289103,0.04936 -0.592306,0.05171 -0.891985,0 -0.135149,-0.02351 -0.235041,-0.13985 -0.235041,-0.277349 v -0.394871 c -0.238567,-0.08461 -0.457157,-0.211538 -0.64519,-0.372541 l -0.341985,0.19626 c -0.117522,0.06817 -0.269123,0.0423 -0.356089,-0.06229 -0.190383,-0.22799 -0.391344,-0.488887 -0.495937,-0.772113 -0.047,-0.128096 0.0046,-0.272647 0.123396,-0.341984 l 0.391345,-0.197435 c -0.04584,-0.24562 -0.04584,-0.498289 0,-0.745083 l -0.391345,-0.198609 c -0.118691,-0.06817 -0.171581,-0.212713 -0.123396,-0.340812 0.104592,-0.2844 0.305554,-0.545296 0.495937,-0.773286 0.08696,-0.104593 0.237392,-0.130449 0.356089,-0.06229 l 0.341985,0.197434 c 0.188033,-0.161003 0.406623,-0.289101 0.64519,-0.372541 v -0.396045 c 0,-0.135149 0.09637,-0.25267 0.23034,-0.276174 0.289102,-0.04935 0.593481,-0.05171 0.893159,-0.0012 0.135149,0.02351 0.235041,0.139851 0.235041,0.277349 v 0.39487 c 0.238569,0.08462 0.457157,0.211538 0.64519,0.372542 l 0.341986,-0.197435 c 0.117523,-0.06817 0.269123,-0.0423 0.356089,0.06229 0.190382,0.227991 0.390168,0.488886 0.494761,0.773287 0.04701,0.128097 0.0012,0.272648 -0.117522,0.341986 l -0.396045,0.197435 c 0.04584,0.246793 0.04584,0.499463 0,0.746258 z m -1.382045,0.247968 c 0.695724,-0.90491 -0.337284,-1.937919 -1.242195,-1.242196 -0.695724,0.904912 0.337285,1.93792 1.242195,1.242196 z m 2.860458,2.147106 -0.09637,0.168056 c -0.03526,0.06229 -0.110473,0.08814 -0.177456,0.06345 -0.138674,-0.05171 -0.265597,-0.125748 -0.377242,-0.218589 -0.05405,-0.04466 -0.06817,-0.123398 -0.03291,-0.184509 l 0.09637,-0.168054 c -0.0811,-0.09401 -0.14455,-0.203311 -0.186858,-0.322006 h -0.193909 c -0.07051,0 -0.131623,-0.05054 -0.143376,-0.121048 -0.02351,-0.141025 -0.02468,-0.289101 0,-0.436002 0.01181,-0.07051 0.07287,-0.122222 0.143376,-0.122222 h 0.193909 c 0.0423,-0.118692 0.105774,-0.22799 0.186858,-0.322006 l -0.09637,-0.168055 c -0.03526,-0.06112 -0.02233,-0.139851 0.03291,-0.184509 0.111642,-0.09284 0.239742,-0.166879 0.377242,-0.218588 0.06699,-0.02468 0.142201,0.0012 0.177456,0.06346 l 0.09637,0.168056 c 0.123397,-0.02233 0.249144,-0.02233 0.372541,0 l 0.09637,-0.168056 c 0.03526,-0.06229 0.110473,-0.08814 0.177456,-0.06346 0.138674,0.05171 0.265597,0.125747 0.377241,0.218588 0.05405,0.04466 0.06817,0.123398 0.03291,0.184509 l -0.09637,0.168055 c 0.0811,0.09401 0.144551,0.20331 0.18686,0.322006 h 0.193908 c 0.07051,0 0.131624,0.05054 0.143376,0.121047 0.02351,0.141025 0.02467,0.289101 0,0.436002 -0.01181,0.07051 -0.07287,0.122223 -0.143376,0.122223 h -0.193908 c -0.0423,0.118691 -0.105774,0.227989 -0.18686,0.322006 l 0.09637,0.168054 c 0.03526,0.06111 0.02233,0.139851 -0.03291,0.184509 -0.111642,0.09284 -0.239742,0.166878 -0.377241,0.218589 -0.06699,0.02468 -0.1422,-0.0012 -0.177456,-0.06345 l -0.09637,-0.168056 c -0.122222,0.02233 -0.249144,0.02233 -0.372541,0 z M 32.34805,59.330962 c 0.452455,0.347862 0.968372,-0.168055 0.62051,-0.620511 -0.452455,-0.34786 -0.968371,0.168055 -0.62051,0.620511 z"
         id="path438"
         inkscape:label="weight-icon"
         style="fill:#ffffff;stroke:none;stroke-width:0.0117521" />
      <text
         xml:space="preserve"
         x="36.588295"
         y="57.249382"
         id="text117876"
         transform="scale(0.96828584,1.0327529)"
         inkscape:label="weight-text"
         style="font-size:5.55198px;fill:#ffffff;stroke-width:0.786895"><tspan
           sodipodi:role="line"
           id="tspan117874"
           style="font-style:normal;font-variant:normal;font-weight:bold;font-stretch:normal;font-size:5.55198px;font-family:Roboto;-inkscape-font-specification:'Roboto Bold';fill:#ffffff;stroke-width:0.140132"
           x="36.588295"
           y="57.249382">Medium-Heavy (3.8)</tspan></text>
    </g>
    <g
       id="g402"
       inkscape:label="player-n-group"
       transform="matrix(0.90025042,0,0,0.90025042,2.2217594,6.4849315)">
      <text
         xml:space="preserve"
         x="37.890091"
         y="50.623714"
         id="text118758"
         transform="scale(0.96828584,1.0327529)"
         inkscape:label="player-n-text"
         style="font-size:7.05556px"><tspan
           sodipodi:role="line"
           id="tspan118754"
           style="font-style:normal;font-variant:normal;font-weight:bold;font-stretch:normal;font-size:7.05556px;font-family:Roboto;-inkscape-font-specification:'Roboto Bold';letter-spacing:-0.0449792px;stroke-width:0.178082"
           x="37.890091"
           y="50.623714">2</tspan></text>
      <path
         d="m 220,164 c 0,-55.229 44.772,-100 100,-100 55.228,0 100,44.771 100,100 0,55.229 -44.772,100 -100,100 -55.228,0 -100,-44.771 -100,-100 z M 48,208 c 0,-44.183 35.817,-80 80,-80 44.183,0 80,35.817 80,80 0,44.183 -35.817,80 -80,80 -44.183,0 -80,-35.817 -80,-80 z m 384,0 c 0,-44.183 35.817,-80 80,-80 44.183,0 80,35.817 80,80 0,44.183 -35.817,80 -80,80 -44.183,0 -80,-35.817 -80,-80 z m -22,76 c 38.66,0 70,31.34 70,70 v 70 c 0,13.255 -10.745,24 -24,24 H 184 c -13.255,0 -24,-10.745 -24,-24 v -70 c 0,-38.66 31.34,-70 70,-70 h 17.848 c 44.364,26.687 99.93,26.693 144.305,0 H 410 m -282,70 c 0,-11.975 2.081,-23.472 5.889,-34.156 C 111.959,320.996 89.767,315.723 70.278,304 H 56 C 25.072,304 0,329.072 0,360 v 32 c 0,13.255 10.745,24 24,24 h 104 z m 456,-50 h -14.278 c -19.495,11.727 -41.686,16.996 -63.611,15.844 A 101.542,101.542 0 0 1 512,354 v 62 h 104 c 13.255,0 24,-10.745 24,-24 v -32 c 0,-30.928 -25.072,-56 -56,-56 z"
         id="path445"
         inkscape:label="player-icon"
         style="fill:#000000;stroke:none"
         transform="matrix(0.01163648,0,0,0.01163648,27.261692,47.012738)" />
    </g>
    <g
       id="g105059"
       transform="matrix(0.68808007,0,0,0.68808007,17.700215,15.413349)"
       inkscape:label="recommended-n-group">
      <text
         xml:space="preserve"
         style="font-weight:bold;font-size:6.6379px;line-height:1.25;font-family:Roboto;-inkscape-font-specification:'Roboto Bold';letter-spacing:0px;word-spacing:0px;fill:#666666;fill-opacity:1;stroke-width:0.25982"
         x="54.125561"
         y="53.966618"
         id="text98414"
         inkscape:label="recommended-n-text"><tspan
           sodipodi:role="line"
           id="tspan98412"
           style="fill:#666666;fill-opacity:1;stroke-width:0.25982"
           x="54.125561"
           y="53.966618">1,2,5)</tspan></text>
      <path
         d="m 52.104547,52.752242 h 0.857511 c 0.142085,0 0.257253,-0.115175 0.257253,-0.257253 v -2.572535 c 0,-0.142084 -0.115175,-0.257254 -0.257253,-0.257254 h -0.857511 c -0.142085,0 -0.257254,0.115175 -0.257254,0.257254 v 2.572535 c 0,0.142083 0.115175,0.257253 0.257254,0.257253 z m 0.428755,-2.658286 c 0.142084,0 0.257254,0.115176 0.257254,0.257253 0,0.142085 -0.115175,0.257254 -0.257254,0.257254 -0.142083,0 -0.257253,-0.115175 -0.257253,-0.257254 0,-0.142083 0.115175,-0.257253 0.257253,-0.257253 z M 49.103256,54.2802 c 0,-0.454654 0.278369,-0.709677 0.356693,-1.013451 h -1.090358 c -0.35798,0 -0.636671,-0.297406 -0.638344,-0.622746 -8.99e-4,-0.192276 0.08088,-0.399268 0.208365,-0.527338 l 0.0011,-0.0011 c -0.105435,-0.250148 -0.0883,-0.600655 0.09977,-0.851821 -0.09305,-0.277566 7.39e-4,-0.618523 0.175597,-0.801313 -0.04607,-0.188631 -0.02405,-0.349168 0.06589,-0.478405 0.218774,-0.314322 0.760999,-0.318749 1.219521,-0.318749 l 0.03049,1.1e-5 c 0.517583,1.84e-4 0.941183,0.188633 1.281551,0.340058 0.171042,0.07609 0.394681,0.17029 0.564361,0.17341 0.0701,0.0012 0.126297,0.0585 0.126297,0.128601 v 2.29135 c 0,0.0343 -0.01379,0.06722 -0.03813,0.09134 -0.424618,0.419579 -0.607202,0.863803 -0.955234,1.212425 -0.158683,0.158982 -0.216393,0.399129 -0.272185,0.631363 -0.04767,0.19831 -0.147375,0.619488 -0.363714,0.619488 -0.257254,0 -0.771761,-0.08574 -0.771761,-0.873074 z"
         id="path1151"
         inkscape:label="recommended-icon"
         style="fill:#666666;fill-opacity:1;stroke:none;stroke-width:0.0107189" />
      <text
         xml:space="preserve"
         style="font-weight:bold;font-size:6.6379px;line-height:1.25;font-family:Roboto;-inkscape-font-specification:'Roboto Bold';letter-spacing:0px;word-spacing:0px;fill:#666666;fill-opacity:1;stroke-width:0.25982"
         x="45.358841"
         y="53.966618"
         id="text1131"
         inkscape:label="recommended-n-parenthesis"><tspan
           sodipodi:role="line"
           id="tspan1129"
           style="fill:#666666;fill-opacity:1;stroke-width:0.25982"
           x="45.358841"
           y="53.966618">(</tspan></text>
    </g>
    <g
       id="g420"
       inkscape:label="rank-group"
       transform="matrix(0.90025042,0,0,0.90025042,8.8561333,-6.6649682)">
      <g
         id="g4731"
         transform="matrix(0.7837691,0,0,0.7837691,17.097464,12.76749)"
         inkscape:label="ribbon-group">
        <path
           d="m 80.121748,56.89505 0.55843,-0.546528 c 0.166465,-0.157589 0.08884,-0.437647 -0.129502,-0.489865 l -0.760803,-0.194178 0.214471,-0.753092 c 0.06061,-0.216621 -0.143648,-0.420939 -0.360196,-0.360316 l -0.752838,0.214541 -0.194104,-0.761057 c -0.05137,-0.214932 -0.33456,-0.293538 -0.489696,-0.129546 l -0.546346,0.562765 -0.546332,-0.56275 c -0.153375,-0.162132 -0.437746,-0.08786 -0.489697,0.129544 l -0.194104,0.761058 -0.75285,-0.214543 c -0.216608,-0.06064 -0.420793,0.143751 -0.360195,0.360317 l 0.21447,0.753092 -0.760804,0.194177 c -0.21844,0.05223 -0.295906,0.332339 -0.129515,0.489854 l 0.55843,0.546529 -0.55843,0.546517 c -0.166465,0.157587 -0.08884,0.437646 0.129502,0.489863 l 0.760801,0.194179 -0.21447,0.753092 c -0.06061,0.216619 0.143649,0.420936 0.360195,0.360316 l 0.752838,-0.214543 0.194106,0.761059 c 0.0539,0.225571 0.336332,0.291668 0.489694,0.129543 l 0.546358,-0.558623 0.546334,0.558623 c 0.151798,0.163795 0.437017,0.09091 0.489694,-0.129543 l 0.194107,-0.761059 0.752838,0.214543 c 0.216595,0.06066 0.42079,-0.14375 0.360195,-0.360316 l -0.21447,-0.753092 0.760803,-0.194179 c 0.218429,-0.05224 0.295893,-0.332338 0.129499,-0.489863 z"
           id="path4726"
           inkscape:label="ribbon"
           style="fill:#ffffff;stroke:#000000;stroke-width:0.212;stroke-dasharray:none" />
        <path
           d="m 79.717721,56.895202 0.466736,-0.456788 c 0.139132,-0.131713 0.07425,-0.365786 -0.108237,-0.40943 l -0.635881,-0.162294 0.179255,-0.629435 c 0.05066,-0.181052 -0.12006,-0.351821 -0.301052,-0.301152 l -0.629222,0.179314 -0.162232,-0.636093 c -0.04294,-0.17964 -0.279626,-0.245339 -0.409289,-0.108274 l -0.456636,0.470359 -0.456625,-0.470347 c -0.128191,-0.13551 -0.365868,-0.07343 -0.409289,0.108273 l -0.162232,0.636093 -0.629233,-0.179315 c -0.181041,-0.05069 -0.351699,0.120147 -0.301051,0.301153 l 0.179254,0.629435 -0.63588,0.162294 c -0.182573,0.04365 -0.247319,0.277768 -0.108249,0.40942 l 0.466736,0.456789 -0.466736,0.456779 c -0.139132,0.131712 -0.07425,0.365785 0.108237,0.409429 l 0.635879,0.162294 -0.179254,0.629435 c -0.05066,0.181051 0.120061,0.351819 0.301051,0.301153 l 0.629222,-0.179316 0.162234,0.636094 c 0.04505,0.188532 0.281107,0.243776 0.409287,0.108272 l 0.456647,-0.466897 0.456626,0.466897 c 0.126872,0.1369 0.365259,0.07598 0.409287,-0.108272 l 0.162234,-0.636094 0.629223,0.179316 c 0.18103,0.05069 0.351697,-0.120147 0.301051,-0.301153 l -0.179254,-0.629435 0.635879,-0.162294 c 0.182564,-0.04366 0.247308,-0.277769 0.108236,-0.409429 z"
           id="path452"
           inkscape:label="ribbon"
           style="fill:#000000;stroke:none;stroke-width:0.0101497" />
      </g>
      <text
         xml:space="preserve"
         style="font-style:normal;font-variant:normal;font-weight:bold;font-stretch:normal;font-size:3.52778px;line-height:1.25;font-family:Roboto;-inkscape-font-specification:'Roboto, Bold';font-variant-ligatures:normal;font-variant-caps:normal;font-variant-numeric:normal;font-variant-east-asian:normal;letter-spacing:-0.15875px;word-spacing:0px;white-space:pre;inline-size:16.0179;display:inline;stroke-width:0.165896"
         x="90.160194"
         y="60.35387"
         id="text2521"
         inkscape:label="rank-text-line2"
         transform="translate(-1.9848104,-0.29039064)"><tspan
           x="90.160194"
           y="60.35387"
           id="tspan1855"><tspan
             style="text-align:center;text-anchor:middle"
             id="tspan1853">all time</tspan></tspan></text>
      <text
         xml:space="preserve"
         style="font-style:normal;font-variant:normal;font-weight:bold;font-stretch:normal;font-size:3.52778px;line-height:1.25;font-family:Roboto;-inkscape-font-specification:'Roboto, Bold';font-variant-ligatures:normal;font-variant-caps:normal;font-variant-numeric:normal;font-variant-east-asian:normal;letter-spacing:-0.15875px;word-spacing:0px;white-space:pre;inline-size:16.0179;display:inline;stroke-width:0.165896"
         x="90.160194"
         y="60.35387"
         id="text2788"
         inkscape:label="rank-text-line1"
         transform="translate(-1.9848104,-3.6211353)"><tspan
           x="90.160194"
           y="60.35387"
           id="tspan1859"><tspan
             style="text-align:center;text-anchor:middle"
             id="tspan1857">Top 50</tspan></tspan></text>
    </g>
    <g
       id="g388"
       inkscape:label="name-group"
       transform="translate(0.80393431)">
      <text
         xml:space="preserve"
         style="font-weight:bold;font-size:6.36931px;line-height:1;font-family:Roboto;-inkscape-font-specification:'Roboto Bold';letter-spacing:0px;word-spacing:0px;display:inline;stroke-width:0.265388"
         x="25.357952"
         y="39.94397"
         id="text11477"
         inkscape:label="name-text-line2"><tspan
           sodipodi:role="line"
           id="tspan11475"
           style="font-style:normal;font-variant:normal;font-weight:bold;font-stretch:normal;font-size:6.36931px;font-family:Roboto;-inkscape-font-specification:'Roboto, Bold';font-variant-ligatures:normal;font-variant-caps:normal;font-variant-numeric:oldstyle-nums;stroke-width:0.265388"
           x="25.357952"
           y="39.94397">1989: Dawn of Freedom</tspan></text>
      <text
         xml:space="preserve"
         style="font-weight:bold;font-size:6.36931px;line-height:1;font-family:Roboto;-inkscape-font-specification:'Roboto Bold';letter-spacing:0px;word-spacing:0px;display:inline;stroke-width:0.265388"
         x="25.357952"
         y="34.395164"
         id="text11473"
         inkscape:label="name-text-line1"><tspan
           sodipodi:role="line"
           id="tspan11471"
           style="font-style:normal;font-variant:normal;font-weight:bold;font-stretch:normal;font-size:6.36931px;font-family:Roboto;-inkscape-font-specification:'Roboto, Bold';font-variant-ligatures:normal;font-variant-caps:normal;font-variant-numeric:oldstyle-nums;stroke-width:0.265388"
           x="25.357952"
           y="34.395164">1989: Dawn of Freedom</tspan></text>
      <text
         xml:space="preserve"
         style="font-weight:bold;font-size:6.36931px;line-height:1;font-family:Roboto;-inkscape-font-specification:'Roboto Bold';letter-spacing:0px;word-spacing:0px;display:inline;stroke-width:0.265388"
         x="26.07012"
         y="37.169575"
         id="text1046"
         inkscape:label="name-text-short"><tspan
           sodipodi:role="line"
           id="tspan1044"
           style="font-style:normal;font-variant:normal;font-weight:bold;font-stretch:normal;font-size:6.36931px;font-family:Roboto;-inkscape-font-specification:'Roboto, Bold';font-variant-ligatures:normal;font-variant-caps:normal;font-variant-numeric:oldstyle-nums;stroke-width:0.265388"
           x="26.07012"
           y="37.169575">1989: Dawn of Freedom</tspan></text>
    </g>
  </g>
</svg>
