<?xml version="1.0" encoding="UTF-8" standalone="no"?>
<!-- Created with Inkscape (http://www.inkscape.org/) -->

<svg
   width="72.834373mm"
   height="40.846691mm"
   viewBox="0 0 72.834373 40.846691"
   version="1.1"
   id="svg5"
   inkscape:version="1.2.2 (b0a8486541, 2022-12-01)"
   sodipodi:docname="root_label.svg"
   inkscape:export-filename="../../tmp/root_label.png"
   inkscape:export-xdpi="96"
   inkscape:export-ydpi="96"
   xmlns:inkscape="http://www.inkscape.org/namespaces/inkscape"
   xmlns:sodipodi="http://sodipodi.sourceforge.net/DTD/sodipodi-0.dtd"
   xmlns:xlink="http://www.w3.org/1999/xlink"
   xmlns="http://www.w3.org/2000/svg"
   xmlns:svg="http://www.w3.org/2000/svg">
  <sodipodi:namedview
     id="namedview7"
     pagecolor="#505050"
     bordercolor="#eeeeee"
     borderopacity="1"
     inkscape:showpageshadow="0"
     inkscape:pageopacity="1"
     inkscape:pagecheckerboard="0"
     inkscape:deskcolor="#50413b"
     inkscape:document-units="mm"
     showgrid="false"
     showguides="true"
     inkscape:zoom="2.381216"
     inkscape:cx="112.33756"
     inkscape:cy="83.150794"
     inkscape:window-width="1267"
     inkscape:window-height="1008"
     inkscape:window-x="1283"
     inkscape:window-y="62"
     inkscape:window-maximized="1"
     inkscape:current-layer="layer1">
    <sodipodi:guide
       position="2.1718698,24.134215"
       orientation="1,0"
       id="guide9798"
       inkscape:locked="false" />
  </sodipodi:namedview>
  <defs
     id="defs2">
    <symbol
       id="hourglass">
      <title
         id="hourglass-title">Hourglass</title>
      <path
         d="m 360,64 c 13.255,0 24,-10.745 24,-24 V 24 C 384,10.745 373.255,0 360,0 H 24 C 10.745,0 0,10.745 0,24 V 40 C 0,53.255 10.745,64 24,64 24,154.965 75.016,231.734 144.842,256 75.016,280.266 24,357.035 24,448 10.745,448 0,458.745 0,472 v 16 c 0,13.255 10.745,24 24,24 h 336 c 13.255,0 24,-10.745 24,-24 V 472 C 384,458.745 373.255,448 360,448 360,357.035 308.984,280.266 239.158,256 308.984,231.734 360,154.965 360,64 Z"
         id="path5603" />
    </symbol>
    <symbol
       id="users">
      <title
         id="users-title">Users</title>
      <path
         d="m 220,164 c 0,-55.229 44.772,-100 100,-100 55.228,0 100,44.771 100,100 0,55.229 -44.772,100 -100,100 -55.228,0 -100,-44.771 -100,-100 z M 48,208 c 0,-44.183 35.817,-80 80,-80 44.183,0 80,35.817 80,80 0,44.183 -35.817,80 -80,80 -44.183,0 -80,-35.817 -80,-80 z m 384,0 c 0,-44.183 35.817,-80 80,-80 44.183,0 80,35.817 80,80 0,44.183 -35.817,80 -80,80 -44.183,0 -80,-35.817 -80,-80 z m -22,76 c 38.66,0 70,31.34 70,70 v 70 c 0,13.255 -10.745,24 -24,24 H 184 c -13.255,0 -24,-10.745 -24,-24 v -70 c 0,-38.66 31.34,-70 70,-70 h 17.848 c 44.364,26.687 99.93,26.693 144.305,0 H 410 m -282,70 c 0,-11.975 2.081,-23.472 5.889,-34.156 C 111.959,320.996 89.767,315.723 70.278,304 H 56 C 25.072,304 0,329.072 0,360 v 32 c 0,13.255 10.745,24 24,24 h 104 z m 456,-50 h -14.278 c -19.495,11.727 -41.686,16.996 -63.611,15.844 A 101.542,101.542 0 0 1 512,354 v 62 h 104 c 13.255,0 24,-10.745 24,-24 v -32 c 0,-30.928 -25.072,-56 -56,-56 z"
         id="path6507" />
    </symbol>
    <symbol
       id="tags">
      <title
         id="tags-title">tags</title>
      <path
         d="M 497.941,225.941 286.059,14.059 A 48,48 0 0 0 252.118,0 H 48 C 21.49,0 0,21.49 0,48 v 204.118 a 48,48 0 0 0 14.059,33.941 l 211.882,211.882 c 18.744,18.745 49.136,18.746 67.882,0 L 497.941,293.823 c 18.745,-18.745 18.745,-49.137 0,-67.882 z M 112,160 c -26.51,0 -48,-21.49 -48,-48 0,-26.51 21.49,-48 48,-48 26.51,0 48,21.49 48,48 0,26.51 -21.49,48 -48,48 z M 625.941,293.823 421.823,497.941 c -18.745,18.745 -49.137,18.745 -67.882,0 l -0.36,-0.36 174.059,-174.059 c 16.999,-16.999 26.36,-39.6 26.36,-63.64 0,-24.04 -9.362,-46.641 -26.36,-63.64 L 331.397,0 h 48.721 a 48,48 0 0 1 33.941,14.059 l 211.882,211.882 c 18.745,18.745 18.745,49.137 0,67.882 z"
         id="path6307" />
    </symbol>
    <symbol
       id="cogs">
      <title
         id="cogs-title">cogs</title>
      <path
         d="m 512.1,191 -8.2,14.3 c -3,5.3 -9.4,7.5 -15.1,5.4 -11.8,-4.4 -22.6,-10.7 -32.1,-18.6 -4.6,-3.8 -5.8,-10.5 -2.8,-15.7 l 8.2,-14.3 c -6.9,-8 -12.3,-17.3 -15.9,-27.4 h -16.5 c -6,0 -11.2,-4.3 -12.2,-10.3 -2,-12 -2.1,-24.6 0,-37.1 1,-6 6.2,-10.4 12.2,-10.4 h 16.5 c 3.6,-10.1 9,-19.4 15.9,-27.4 l -8.2,-14.3 c -3,-5.2 -1.9,-11.9 2.8,-15.7 9.5,-7.9 20.4,-14.2 32.1,-18.6 5.7,-2.1 12.1,0.1 15.1,5.4 l 8.2,14.3 c 10.5,-1.9 21.2,-1.9 31.7,0 L 552,6.3 c 3,-5.3 9.4,-7.5 15.1,-5.4 11.8,4.4 22.6,10.7 32.1,18.6 4.6,3.8 5.8,10.5 2.8,15.7 l -8.2,14.3 c 6.9,8 12.3,17.3 15.9,27.4 h 16.5 c 6,0 11.2,4.3 12.2,10.3 2,12 2.1,24.6 0,37.1 -1,6 -6.2,10.4 -12.2,10.4 h -16.5 c -3.6,10.1 -9,19.4 -15.9,27.4 l 8.2,14.3 c 3,5.2 1.9,11.9 -2.8,15.7 -9.5,7.9 -20.4,14.2 -32.1,18.6 -5.7,2.1 -12.1,-0.1 -15.1,-5.4 L 543.8,191 c -10.4,1.9 -21.2,1.9 -31.7,0 z M 501.6,132.2 C 540.1,161.8 584,117.9 554.4,79.4 515.9,49.7 472,93.7 501.6,132.2 Z M 386.3,286.1 420,302.9 c 10.1,5.8 14.5,18.1 10.5,29.1 -8.9,24.2 -26.4,46.4 -42.6,65.8 -7.4,8.9 -20.2,11.1 -30.3,5.3 l -29.1,-16.8 c -16,13.7 -34.6,24.6 -54.9,31.7 v 33.6 c 0,11.6 -8.3,21.6 -19.7,23.6 -24.6,4.2 -50.4,4.4 -75.9,0 -11.5,-2 -20,-11.9 -20,-23.6 V 418 c -20.3,-7.2 -38.9,-18 -54.9,-31.7 L 74,403 C 64,408.8 51.1,406.6 43.7,397.7 27.5,378.3 10.4,356.1 1.5,332 -2.5,321.1 1.9,308.8 12,302.9 l 33.3,-16.8 c -3.9,-20.9 -3.9,-42.4 0,-63.4 L 12,205.8 C 1.9,200 -2.6,187.7 1.5,176.8 10.4,152.6 27.5,130.4 43.7,111 51.1,102.1 63.9,99.9 74,105.7 l 29.1,16.8 c 16,-13.7 34.6,-24.6 54.9,-31.7 V 57.1 c 0,-11.5 8.2,-21.5 19.6,-23.5 24.6,-4.2 50.5,-4.4 76,-0.1 11.5,2 20,11.9 20,23.6 v 33.6 c 20.3,7.2 38.9,18 54.9,31.7 l 29.1,-16.8 c 10,-5.8 22.9,-3.6 30.3,5.3 16.2,19.4 33.2,41.6 42.1,65.8 4,10.9 0.1,23.2 -10,29.1 l -33.7,16.8 c 3.9,21 3.9,42.5 0,63.5 z M 268.7,307.2 C 327.9,230.2 240,142.3 163,201.5 c -59.2,77 28.7,164.9 105.7,105.7 z m 243.4,182.7 -8.2,14.3 c -3,5.3 -9.4,7.5 -15.1,5.4 -11.8,-4.4 -22.6,-10.7 -32.1,-18.6 -4.6,-3.8 -5.8,-10.5 -2.8,-15.7 l 8.2,-14.3 c -6.9,-8 -12.3,-17.3 -15.9,-27.4 h -16.5 c -6,0 -11.2,-4.3 -12.2,-10.3 -2,-12 -2.1,-24.6 0,-37.1 1,-6 6.2,-10.4 12.2,-10.4 h 16.5 c 3.6,-10.1 9,-19.4 15.9,-27.4 l -8.2,-14.3 c -3,-5.2 -1.9,-11.9 2.8,-15.7 9.5,-7.9 20.4,-14.2 32.1,-18.6 5.7,-2.1 12.1,0.1 15.1,5.4 l 8.2,14.3 c 10.5,-1.9 21.2,-1.9 31.7,0 l 8.2,-14.3 c 3,-5.3 9.4,-7.5 15.1,-5.4 11.8,4.4 22.6,10.7 32.1,18.6 4.6,3.8 5.8,10.5 2.8,15.7 l -8.2,14.3 c 6.9,8 12.3,17.3 15.9,27.4 h 16.5 c 6,0 11.2,4.3 12.2,10.3 2,12 2.1,24.6 0,37.1 -1,6 -6.2,10.4 -12.2,10.4 h -16.5 c -3.6,10.1 -9,19.4 -15.9,27.4 l 8.2,14.3 c 3,5.2 1.9,11.9 -2.8,15.7 -9.5,7.9 -20.4,14.2 -32.1,18.6 -5.7,2.1 -12.1,-0.1 -15.1,-5.4 l -8.2,-14.3 c -10.4,1.9 -21.2,1.9 -31.7,0 z M 501.6,431 c 38.5,29.6 82.4,-14.3 52.8,-52.8 -38.5,-29.6 -82.4,14.3 -52.8,52.8 z"
         id="path5203" />
    </symbol>
    <symbol
       id="star">
      <title
         id="star-title">Star</title>
      <path
         d="M 259.3,17.8 194,150.2 47.9,171.5 c -26.2,3.8 -36.7,36.1 -17.7,54.6 l 105.7,103 -25,145.5 c -4.5,26.3 23.2,46 46.4,33.7 L 288,439.6 418.7,508.3 c 23.2,12.2 50.9,-7.4 46.4,-33.7 l -25,-145.5 105.7,-103 c 19,-18.5 8.5,-50.8 -17.7,-54.6 L 382,150.2 316.7,17.8 C 305,-5.8 271.1,-6.1 259.3,17.8 Z"
         id="path6219" />
    </symbol>
    <symbol
       id="star-half">
      <title
         id="star-half-title">star-half</title>
      <path
         d="M 288,0 C 276.6,0 265.2,5.9 259.3,17.8 L 194,150.2 47.9,171.4 C 21.7,175.2 11.2,207.5 30.2,226 l 105.7,103 -25,145.5 c -4.5,26.1 23,46 46.4,33.7 L 288,439.6 Z"
         id="path6223" />
    </symbol>
    <symbol
       id="lightbulb">
      <title
         id="lightbulb-title">Lightbulb</title>
      <path
         d="m 272,428 v 28 c 0,10.449 -6.68,19.334 -16,22.629 V 488 c 0,13.255 -10.745,24 -24,24 h -80 c -13.255,0 -24,-10.745 -24,-24 v -9.371 C 118.68,475.334 112,466.449 112,456 v -28 c 0,-6.627 5.373,-12 12,-12 h 136 c 6.627,0 12,5.373 12,12 z M 128.893,384 c -9.907,0 -18.826,-6.078 -22.376,-15.327 C 67.697,267.541 16,277.731 16,176 16,78.803 94.805,0 192,0 c 97.195,0 176,78.803 176,176 0,101.731 -51.697,91.541 -90.516,192.673 -3.55,9.249 -12.47,15.327 -22.376,15.327 z M 112,176 c 0,-44.112 35.888,-80 80,-80 8.837,0 16,-7.164 16,-16 0,-8.836 -7.163,-16 -16,-16 -61.757,0 -112,50.243 -112,112 0,8.836 7.164,16 16,16 8.836,0 16,-7.164 16,-16 z"
         id="path5699" />
    </symbol>
    <symbol
       id="exclamation-triangle">
      <title
         id="exclamation-triangle-title">Exclamation Triangle</title>
      <path
         d="M 569.517,440.013 C 587.975,472.007 564.806,512 527.94,512 H 48.054 C 11.117,512 -11.945,471.945 6.477,440.013 L 246.423,23.985 c 18.467,-32.009 64.72,-31.951 83.154,0 z M 288,354 c -25.405,0 -46,20.595 -46,46 0,25.405 20.595,46 46,46 25.405,0 46,-20.595 46,-46 0,-25.405 -20.595,-46 -46,-46 z m -43.673,-165.346 7.418,136 c 0.347,6.364 5.609,11.346 11.982,11.346 h 48.546 c 6.373,0 11.635,-4.982 11.982,-11.346 l 7.418,-136 C 332.048,181.78 326.575,176 319.691,176 h -63.383 c -6.884,0 -12.356,5.78 -11.981,12.654 z"
         id="path5335" />
    </symbol>
    <symbol
       id="certificate">
      <title
         id="certificate-title">certificate</title>
      <path
         d="m 458.622,255.92 45.985,-45.005 c 13.708,-12.977 7.316,-36.039 -10.664,-40.339 l -62.65,-15.99 17.661,-62.015 C 453.945,74.733 437.125,57.908 419.293,62.9 L 357.299,80.567 341.315,17.896 C 337.085,0.197 313.765,-6.276 300.99,7.228 L 256,53.57 211.011,7.229 C 198.381,-6.122 174.964,-0.005 170.686,17.897 L 154.702,80.568 92.707,62.901 C 74.87,57.907 58.056,74.738 63.046,92.572 l 17.661,62.015 -62.65,15.99 C 0.069,174.878 -6.31,197.944 7.392,210.915 L 53.377,255.92 7.392,300.924 c -13.708,12.977 -7.316,36.039 10.664,40.339 l 62.65,15.99 -17.661,62.015 c -4.991,17.838 11.829,34.663 29.661,29.671 l 61.994,-17.667 15.984,62.671 c 4.439,18.575 27.696,24.018 40.325,10.668 L 256,458.61 l 44.989,46.001 c 12.5,13.488 35.987,7.486 40.325,-10.668 l 15.984,-62.671 61.994,17.667 c 17.836,4.994 34.651,-11.837 29.661,-29.671 l -17.661,-62.015 62.65,-15.99 c 17.987,-4.302 24.366,-27.367 10.664,-40.339 z"
         id="path5083" />
    </symbol>
  </defs>
  <g
     inkscape:label="Layer 1"
     inkscape:groupmode="layer"
     id="layer1"
     transform="translate(-24.054968,-28.574564)">
    <rect
       style="fill:#ffffff;fill-opacity:1;stroke:#000000;stroke-width:0.264583;stroke-opacity:1;stop-color:#000000"
       id="rect8187"
       width="72.569794"
       height="40.582108"
       x="24.18726"
       y="28.706856" />
    <text
       xml:space="preserve"
       style="font-size:5.00579px;line-height:0.85;font-family:OptimusPrincepsSemiBold;-inkscape-font-specification:OptimusPrincepsSemiBold;letter-spacing:0px;word-spacing:0px;white-space:pre;inline-size:40;display:inline;stroke-width:0.125145"
       x="25"
       y="34"
       id="text8033"><tspan
         x="25"
         y="34"
         id="tspan10329"><tspan
           style="font-family:'Helvetica Black';-inkscape-font-specification:'Helvetica Black, '"
           id="tspan10327">1989: Dawn of </tspan></tspan><tspan
         x="25"
         y="38.330351"
         id="tspan10333"><tspan
           style="font-family:'Helvetica Black';-inkscape-font-specification:'Helvetica Black, '"
           id="tspan10331">freedom </tspan></tspan></text>
    <text
       xml:space="preserve"
       style="font-size:6.7596px;line-height:1.25;font-family:OptimusPrincepsSemiBold;-inkscape-font-specification:OptimusPrincepsSemiBold;letter-spacing:-0.284441px;word-spacing:0px;stroke-width:0.16899"
       x="32.659676"
       y="44.76247"
       id="text8033-0"><tspan
         sodipodi:role="line"
         id="tspan8031-1"
         style="font-style:normal;font-variant:normal;font-weight:bold;font-stretch:normal;font-family:Helvetica;-inkscape-font-specification:'Helvetica Bold';stroke-width:0.16899"
         x="32.659676"
         y="44.76247">120-180 min</tspan></text>
    <use
       xlink:href="#hourglass"
       style="fill:#000000;stroke:none"
       id="use9760"
       transform="matrix(0.00976563,0,0,0.00976563,27.075695,40.062689)" />
    <use
       xlink:href="#users"
       style="fill:#000000;stroke:none"
       id="use9809"
       transform="matrix(0.01163648,0,0,0.01163648,27.261692,47.012738)" />
    <text
       xml:space="preserve"
       style="font-size:3.42618px;line-height:0.8;font-family:OptimusPrincepsSemiBold;-inkscape-font-specification:OptimusPrincepsSemiBold;letter-spacing:-0.144172px;word-spacing:0px;stroke-width:0.0856543"
       x="71.912262"
       y="56.228043"
       id="text19292"><tspan
         sodipodi:role="line"
         id="tspan19290"
         style="font-style:normal;font-variant:normal;font-weight:bold;font-stretch:normal;font-family:Helvetica;-inkscape-font-specification:'Helvetica Bold';text-align:center;text-anchor:middle;stroke-width:0.0856543"
         x="71.912262"
         y="56.228043">Strategy</tspan><tspan
         sodipodi:role="line"
         style="font-style:normal;font-variant:normal;font-weight:bold;font-stretch:normal;font-family:Helvetica;-inkscape-font-specification:'Helvetica Bold';text-align:center;text-anchor:middle;stroke-width:0.0856543"
         x="71.840179"
         y="59.198025"
         id="tspan120367">Top 3</tspan></text>
    <use
       xlink:href="#tags"
       style="fill:#000000;stroke:none"
       id="use19303"
       transform="matrix(0.00927123,0,0,0.00927123,27.52381,62.211903)" />
    <text
       xml:space="preserve"
       style="font-size:4.06471px;line-height:1.25;font-family:OptimusPrincepsSemiBold;-inkscape-font-specification:OptimusPrincepsSemiBold;letter-spacing:-0.171041px;word-spacing:0px;stroke-width:0.101617"
       x="34.0779"
       y="66.012833"
       id="text112650"><tspan
         sodipodi:role="line"
         id="tspan112648"
         style="font-style:normal;font-variant:normal;font-weight:bold;font-stretch:normal;font-family:Helvetica;-inkscape-font-specification:'Helvetica Bold';stroke-width:0.101617"
         x="34.0779"
         y="66.012833">Wargame, Historical</tspan></text>
    <use
       xlink:href="#cogs"
       style="fill:#000000;stroke:none"
       id="use116303"
       transform="matrix(0.00834864,0,0,0.00834864,28.589284,55.177414)" />
    <g
       id="g116418"
       transform="matrix(0.79950772,0,0,0.79950772,7.7344557,9.3987669)">
      <use
         xlink:href="#star"
         style="fill:#000000;stroke:none"
         id="use116341"
         transform="matrix(0.00976442,0,0,0.00976442,64.40891,48.540288)" />
      <use
         xlink:href="#star-half"
         style="fill:#000000;stroke:none"
         id="use116396"
         transform="matrix(0.00976696,0,0,0.00976696,70.121418,48.540167)" />
    </g>
    <text
       xml:space="preserve"
       style="font-size:6.63587px;line-height:1.25;font-family:OptimusPrincepsSemiBold;-inkscape-font-specification:OptimusPrincepsSemiBold;letter-spacing:-0.279234px;word-spacing:0px;stroke-width:0.165896"
       x="67.134964"
       y="52.431068"
       id="text116422"><tspan
         sodipodi:role="line"
         id="tspan116420"
         style="font-style:normal;font-variant:normal;font-weight:bold;font-stretch:normal;font-family:Helvetica;-inkscape-font-specification:'Helvetica Bold';stroke-width:0.165896"
         x="67.134964"
         y="52.431068">8.5</tspan></text>
    <text
       xml:space="preserve"
       style="font-size:7.12331px;line-height:1.25;font-family:OptimusPrincepsSemiBold;-inkscape-font-specification:OptimusPrincepsSemiBold;letter-spacing:-0.299746px;word-spacing:0px;stroke-width:0.178082"
       x="37.292721"
       y="57.999928"
       id="text117876"
       transform="scale(0.96828584,1.0327529)"><tspan
         sodipodi:role="line"
         id="tspan117874"
         style="font-style:normal;font-variant:normal;font-weight:bold;font-stretch:normal;font-family:Helvetica;-inkscape-font-specification:'Helvetica Bold';stroke-width:0.178082"
         x="37.292721"
         y="57.999928">3.8</tspan></text>
    <use
       xlink:href="#lightbulb"
       style="fill:#000000;stroke:none"
       id="use117968"
       transform="matrix(0.015625,0,0,0.015625,89.113818,59.505557)" />
    <text
       xml:space="preserve"
       style="font-size:7.12331px;line-height:1.25;font-family:OptimusPrincepsSemiBold;-inkscape-font-specification:OptimusPrincepsSemiBold;letter-spacing:-0.299746px;word-spacing:0px;stroke-width:0.178082"
       x="37.890091"
       y="50.623714"
       id="text118758"
       transform="scale(0.96828584,1.0327529)"><tspan
         sodipodi:role="line"
         id="tspan118754"
         style="font-style:normal;font-variant:normal;font-weight:bold;font-stretch:normal;font-family:Helvetica;-inkscape-font-specification:'Helvetica Bold';letter-spacing:-0.0449792px;stroke-width:0.178082"
         x="37.890091"
         y="50.623714">2</tspan><tspan
         sodipodi:role="line"
         style="font-style:normal;font-variant:normal;font-weight:bold;font-stretch:normal;font-family:Helvetica;-inkscape-font-specification:'Helvetica Bold';stroke-width:0.178082"
         x="37.890091"
         y="60.004044"
         id="tspan118756" /></text>
    <use
       xlink:href="#exclamation-triangle"
       style="fill:#000000;stroke:none"
       id="use120210"
       transform="matrix(0.01134922,0,0,0.01134922,74.747149,29.742682)" />
    <text
       xml:space="preserve"
       style="font-size:2.81274px;line-height:0.75;font-family:OptimusPrincepsSemiBold;-inkscape-font-specification:OptimusPrincepsSemiBold;letter-spacing:-0.118359px;word-spacing:0px;stroke-width:0.0703185"
       x="81.476067"
       y="32.655361"
       id="text120232"><tspan
         sodipodi:role="line"
         id="tspan120230"
         style="font-style:normal;font-variant:normal;font-weight:bold;font-stretch:normal;font-family:Helvetica;-inkscape-font-specification:'Helvetica Bold';stroke-width:0.0703185"
         x="81.476067"
         y="32.655361"
         dy="-0.030075718">Violence, </tspan><tspan
         sodipodi:role="line"
         style="font-style:normal;font-variant:normal;font-weight:bold;font-stretch:normal;font-family:Helvetica;-inkscape-font-specification:'Helvetica Bold';stroke-width:0.0703185"
         x="81.476067"
         y="34.952946"
         id="tspan120236">Colonialism</tspan></text>
    <use
       xlink:href="#certificate"
       style="fill:#000000;stroke:none"
       id="use120389"
       transform="matrix(0.00826617,0,0,0.00826617,61.483794,54.779875)" />
  </g>
</svg>
