<?xml version="1.0" encoding="UTF-8" standalone="no"?>
<!-- Created with Inkscape (http://www.inkscape.org/) -->

<svg
   width="72mm"
   height="40mm"
   viewBox="0 0 72 40"
   version="1.2"
   id="svg5"
   inkscape:version="1.2.2 (b0a8486541, 2022-12-01)"
   sodipodi:docname="label_template.svg"
   inkscape:export-filename="../../tmp/root_label.png"
   inkscape:export-xdpi="96"
   inkscape:export-ydpi="96"
   xmlns:inkscape="http://www.inkscape.org/namespaces/inkscape"
   xmlns:sodipodi="http://sodipodi.sourceforge.net/DTD/sodipodi-0.dtd"
   xmlns="http://www.w3.org/2000/svg"
   xmlns:svg="http://www.w3.org/2000/svg">
  <sodipodi:namedview
     id="namedview7"
     pagecolor="#505050"
     bordercolor="#eeeeee"
     borderopacity="1"
     inkscape:showpageshadow="0"
     inkscape:pageopacity="1"
     inkscape:pagecheckerboard="0"
     inkscape:deskcolor="#50413b"
     inkscape:document-units="mm"
     showgrid="false"
     showguides="false"
     inkscape:zoom="3.1019642"
     inkscape:cx="122.18065"
     inkscape:cy="109.2856"
     inkscape:window-width="2544"
     inkscape:window-height="1008"
     inkscape:window-x="6"
     inkscape:window-y="62"
     inkscape:window-maximized="0"
     inkscape:current-layer="g467">
    <sodipodi:guide
       position="2.1718699,23.287527"
       orientation="1,0"
       id="guide9798"
       inkscape:locked="false" />
    <sodipodi:guide
       position="20.606331,14.728086"
       orientation="0,-1"
       id="guide2345"
       inkscape:locked="false" />
  </sodipodi:namedview>
  <defs
     id="defs2">
    <symbol
       id="hourglass">
      <title
         id="hourglass-title">Hourglass</title>
      <path
         d="m 360,64 c 13.255,0 24,-10.745 24,-24 V 24 C 384,10.745 373.255,0 360,0 H 24 C 10.745,0 0,10.745 0,24 V 40 C 0,53.255 10.745,64 24,64 24,154.965 75.016,231.734 144.842,256 75.016,280.266 24,357.035 24,448 10.745,448 0,458.745 0,472 v 16 c 0,13.255 10.745,24 24,24 h 336 c 13.255,0 24,-10.745 24,-24 V 472 C 384,458.745 373.255,448 360,448 360,357.035 308.984,280.266 239.158,256 308.984,231.734 360,154.965 360,64 Z"
         id="path5603" />
    </symbol>
    <symbol
       id="users">
      <title
         id="users-title">Users</title>
      <path
         d="m 220,164 c 0,-55.229 44.772,-100 100,-100 55.228,0 100,44.771 100,100 0,55.229 -44.772,100 -100,100 -55.228,0 -100,-44.771 -100,-100 z M 48,208 c 0,-44.183 35.817,-80 80,-80 44.183,0 80,35.817 80,80 0,44.183 -35.817,80 -80,80 -44.183,0 -80,-35.817 -80,-80 z m 384,0 c 0,-44.183 35.817,-80 80,-80 44.183,0 80,35.817 80,80 0,44.183 -35.817,80 -80,80 -44.183,0 -80,-35.817 -80,-80 z m -22,76 c 38.66,0 70,31.34 70,70 v 70 c 0,13.255 -10.745,24 -24,24 H 184 c -13.255,0 -24,-10.745 -24,-24 v -70 c 0,-38.66 31.34,-70 70,-70 h 17.848 c 44.364,26.687 99.93,26.693 144.305,0 H 410 m -282,70 c 0,-11.975 2.081,-23.472 5.889,-34.156 C 111.959,320.996 89.767,315.723 70.278,304 H 56 C 25.072,304 0,329.072 0,360 v 32 c 0,13.255 10.745,24 24,24 h 104 z m 456,-50 h -14.278 c -19.495,11.727 -41.686,16.996 -63.611,15.844 A 101.542,101.542 0 0 1 512,354 v 62 h 104 c 13.255,0 24,-10.745 24,-24 v -32 c 0,-30.928 -25.072,-56 -56,-56 z"
         id="path6507" />
    </symbol>
    <symbol
       id="tags">
      <title
         id="tags-title">tags</title>
      <path
         d="M 497.941,225.941 286.059,14.059 A 48,48 0 0 0 252.118,0 H 48 C 21.49,0 0,21.49 0,48 v 204.118 a 48,48 0 0 0 14.059,33.941 l 211.882,211.882 c 18.744,18.745 49.136,18.746 67.882,0 L 497.941,293.823 c 18.745,-18.745 18.745,-49.137 0,-67.882 z M 112,160 c -26.51,0 -48,-21.49 -48,-48 0,-26.51 21.49,-48 48,-48 26.51,0 48,21.49 48,48 0,26.51 -21.49,48 -48,48 z M 625.941,293.823 421.823,497.941 c -18.745,18.745 -49.137,18.745 -67.882,0 l -0.36,-0.36 174.059,-174.059 c 16.999,-16.999 26.36,-39.6 26.36,-63.64 0,-24.04 -9.362,-46.641 -26.36,-63.64 L 331.397,0 h 48.721 a 48,48 0 0 1 33.941,14.059 l 211.882,211.882 c 18.745,18.745 18.745,49.137 0,67.882 z"
         id="path6307" />
    </symbol>
    <symbol
       id="cogs">
      <title
         id="cogs-title">cogs</title>
      <path
         d="m 512.1,191 -8.2,14.3 c -3,5.3 -9.4,7.5 -15.1,5.4 -11.8,-4.4 -22.6,-10.7 -32.1,-18.6 -4.6,-3.8 -5.8,-10.5 -2.8,-15.7 l 8.2,-14.3 c -6.9,-8 -12.3,-17.3 -15.9,-27.4 h -16.5 c -6,0 -11.2,-4.3 -12.2,-10.3 -2,-12 -2.1,-24.6 0,-37.1 1,-6 6.2,-10.4 12.2,-10.4 h 16.5 c 3.6,-10.1 9,-19.4 15.9,-27.4 l -8.2,-14.3 c -3,-5.2 -1.9,-11.9 2.8,-15.7 9.5,-7.9 20.4,-14.2 32.1,-18.6 5.7,-2.1 12.1,0.1 15.1,5.4 l 8.2,14.3 c 10.5,-1.9 21.2,-1.9 31.7,0 L 552,6.3 c 3,-5.3 9.4,-7.5 15.1,-5.4 11.8,4.4 22.6,10.7 32.1,18.6 4.6,3.8 5.8,10.5 2.8,15.7 l -8.2,14.3 c 6.9,8 12.3,17.3 15.9,27.4 h 16.5 c 6,0 11.2,4.3 12.2,10.3 2,12 2.1,24.6 0,37.1 -1,6 -6.2,10.4 -12.2,10.4 h -16.5 c -3.6,10.1 -9,19.4 -15.9,27.4 l 8.2,14.3 c 3,5.2 1.9,11.9 -2.8,15.7 -9.5,7.9 -20.4,14.2 -32.1,18.6 -5.7,2.1 -12.1,-0.1 -15.1,-5.4 L 543.8,191 c -10.4,1.9 -21.2,1.9 -31.7,0 z M 501.6,132.2 C 540.1,161.8 584,117.9 554.4,79.4 515.9,49.7 472,93.7 501.6,132.2 Z M 386.3,286.1 420,302.9 c 10.1,5.8 14.5,18.1 10.5,29.1 -8.9,24.2 -26.4,46.4 -42.6,65.8 -7.4,8.9 -20.2,11.1 -30.3,5.3 l -29.1,-16.8 c -16,13.7 -34.6,24.6 -54.9,31.7 v 33.6 c 0,11.6 -8.3,21.6 -19.7,23.6 -24.6,4.2 -50.4,4.4 -75.9,0 -11.5,-2 -20,-11.9 -20,-23.6 V 418 c -20.3,-7.2 -38.9,-18 -54.9,-31.7 L 74,403 C 64,408.8 51.1,406.6 43.7,397.7 27.5,378.3 10.4,356.1 1.5,332 -2.5,321.1 1.9,308.8 12,302.9 l 33.3,-16.8 c -3.9,-20.9 -3.9,-42.4 0,-63.4 L 12,205.8 C 1.9,200 -2.6,187.7 1.5,176.8 10.4,152.6 27.5,130.4 43.7,111 51.1,102.1 63.9,99.9 74,105.7 l 29.1,16.8 c 16,-13.7 34.6,-24.6 54.9,-31.7 V 57.1 c 0,-11.5 8.2,-21.5 19.6,-23.5 24.6,-4.2 50.5,-4.4 76,-0.1 11.5,2 20,11.9 20,23.6 v 33.6 c 20.3,7.2 38.9,18 54.9,31.7 l 29.1,-16.8 c 10,-5.8 22.9,-3.6 30.3,5.3 16.2,19.4 33.2,41.6 42.1,65.8 4,10.9 0.1,23.2 -10,29.1 l -33.7,16.8 c 3.9,21 3.9,42.5 0,63.5 z M 268.7,307.2 C 327.9,230.2 240,142.3 163,201.5 c -59.2,77 28.7,164.9 105.7,105.7 z m 243.4,182.7 -8.2,14.3 c -3,5.3 -9.4,7.5 -15.1,5.4 -11.8,-4.4 -22.6,-10.7 -32.1,-18.6 -4.6,-3.8 -5.8,-10.5 -2.8,-15.7 l 8.2,-14.3 c -6.9,-8 -12.3,-17.3 -15.9,-27.4 h -16.5 c -6,0 -11.2,-4.3 -12.2,-10.3 -2,-12 -2.1,-24.6 0,-37.1 1,-6 6.2,-10.4 12.2,-10.4 h 16.5 c 3.6,-10.1 9,-19.4 15.9,-27.4 l -8.2,-14.3 c -3,-5.2 -1.9,-11.9 2.8,-15.7 9.5,-7.9 20.4,-14.2 32.1,-18.6 5.7,-2.1 12.1,0.1 15.1,5.4 l 8.2,14.3 c 10.5,-1.9 21.2,-1.9 31.7,0 l 8.2,-14.3 c 3,-5.3 9.4,-7.5 15.1,-5.4 11.8,4.4 22.6,10.7 32.1,18.6 4.6,3.8 5.8,10.5 2.8,15.7 l -8.2,14.3 c 6.9,8 12.3,17.3 15.9,27.4 h 16.5 c 6,0 11.2,4.3 12.2,10.3 2,12 2.1,24.6 0,37.1 -1,6 -6.2,10.4 -12.2,10.4 h -16.5 c -3.6,10.1 -9,19.4 -15.9,27.4 l 8.2,14.3 c 3,5.2 1.9,11.9 -2.8,15.7 -9.5,7.9 -20.4,14.2 -32.1,18.6 -5.7,2.1 -12.1,-0.1 -15.1,-5.4 l -8.2,-14.3 c -10.4,1.9 -21.2,1.9 -31.7,0 z M 501.6,431 c 38.5,29.6 82.4,-14.3 52.8,-52.8 -38.5,-29.6 -82.4,14.3 -52.8,52.8 z"
         id="path5203" />
    </symbol>
    <symbol
       id="star">
      <title
         id="star-title">Star</title>
      <path
         d="M 259.3,17.8 194,150.2 47.9,171.5 c -26.2,3.8 -36.7,36.1 -17.7,54.6 l 105.7,103 -25,145.5 c -4.5,26.3 23.2,46 46.4,33.7 L 288,439.6 418.7,508.3 c 23.2,12.2 50.9,-7.4 46.4,-33.7 l -25,-145.5 105.7,-103 c 19,-18.5 8.5,-50.8 -17.7,-54.6 L 382,150.2 316.7,17.8 C 305,-5.8 271.1,-6.1 259.3,17.8 Z"
         id="path6219" />
    </symbol>
    <symbol
       id="star-half">
      <title
         id="star-half-title">star-half</title>
      <path
         d="M 288,0 C 276.6,0 265.2,5.9 259.3,17.8 L 194,150.2 47.9,171.4 C 21.7,175.2 11.2,207.5 30.2,226 l 105.7,103 -25,145.5 c -4.5,26.1 23,46 46.4,33.7 L 288,439.6 Z"
         id="path6223" />
    </symbol>
    <symbol
       id="lightbulb">
      <title
         id="lightbulb-title">Lightbulb</title>
      <path
         d="m 272,428 v 28 c 0,10.449 -6.68,19.334 -16,22.629 V 488 c 0,13.255 -10.745,24 -24,24 h -80 c -13.255,0 -24,-10.745 -24,-24 v -9.371 C 118.68,475.334 112,466.449 112,456 v -28 c 0,-6.627 5.373,-12 12,-12 h 136 c 6.627,0 12,5.373 12,12 z M 128.893,384 c -9.907,0 -18.826,-6.078 -22.376,-15.327 C 67.697,267.541 16,277.731 16,176 16,78.803 94.805,0 192,0 c 97.195,0 176,78.803 176,176 0,101.731 -51.697,91.541 -90.516,192.673 -3.55,9.249 -12.47,15.327 -22.376,15.327 z M 112,176 c 0,-44.112 35.888,-80 80,-80 8.837,0 16,-7.164 16,-16 0,-8.836 -7.163,-16 -16,-16 -61.757,0 -112,50.243 -112,112 0,8.836 7.164,16 16,16 8.836,0 16,-7.164 16,-16 z"
         id="path5699" />
    </symbol>
    <symbol
       id="exclamation-triangle">
      <title
         id="exclamation-triangle-title">Exclamation Triangle</title>
      <path
         d="M 569.517,440.013 C 587.975,472.007 564.806,512 527.94,512 H 48.054 C 11.117,512 -11.945,471.945 6.477,440.013 L 246.423,23.985 c 18.467,-32.009 64.72,-31.951 83.154,0 z M 288,354 c -25.405,0 -46,20.595 -46,46 0,25.405 20.595,46 46,46 25.405,0 46,-20.595 46,-46 0,-25.405 -20.595,-46 -46,-46 z m -43.673,-165.346 7.418,136 c 0.347,6.364 5.609,11.346 11.982,11.346 h 48.546 c 6.373,0 11.635,-4.982 11.982,-11.346 l 7.418,-136 C 332.048,181.78 326.575,176 319.691,176 h -63.383 c -6.884,0 -12.356,5.78 -11.981,12.654 z"
         id="path5335" />
    </symbol>
    <symbol
       id="certificate">
      <title
         id="certificate-title">certificate</title>
      <path
         d="m 458.622,255.92 45.985,-45.005 c 13.708,-12.977 7.316,-36.039 -10.664,-40.339 l -62.65,-15.99 17.661,-62.015 C 453.945,74.733 437.125,57.908 419.293,62.9 L 357.299,80.567 341.315,17.896 C 337.085,0.197 313.765,-6.276 300.99,7.228 L 256,53.57 211.011,7.229 C 198.381,-6.122 174.964,-0.005 170.686,17.897 L 154.702,80.568 92.707,62.901 C 74.87,57.907 58.056,74.738 63.046,92.572 l 17.661,62.015 -62.65,15.99 C 0.069,174.878 -6.31,197.944 7.392,210.915 L 53.377,255.92 7.392,300.924 c -13.708,12.977 -7.316,36.039 10.664,40.339 l 62.65,15.99 -17.661,62.015 c -4.991,17.838 11.829,34.663 29.661,29.671 l 61.994,-17.667 15.984,62.671 c 4.439,18.575 27.696,24.018 40.325,10.668 L 256,458.61 l 44.989,46.001 c 12.5,13.488 35.987,7.486 40.325,-10.668 l 15.984,-62.671 61.994,17.667 c 17.836,4.994 34.651,-11.837 29.661,-29.671 l -17.661,-62.015 62.65,-15.99 c 17.987,-4.302 24.366,-27.367 10.664,-40.339 z"
         id="path5083" />
    </symbol>
    <symbol
       id="thumbs-up">
      <title
         id="thumbs-up-title">thumbs-up</title>
      <path
         d="M 104,224 H 24 C 10.745,224 0,234.745 0,248 v 240 c 0,13.255 10.745,24 24,24 h 80 c 13.255,0 24,-10.745 24,-24 V 248 c 0,-13.255 -10.745,-24 -24,-24 z M 64,472 c -13.255,0 -24,-10.745 -24,-24 0,-13.255 10.745,-24 24,-24 13.255,0 24,10.745 24,24 0,13.255 -10.745,24 -24,24 z M 384,81.452 c 0,42.416 -25.97,66.208 -33.277,94.548 h 101.723 c 33.397,0 59.397,27.746 59.553,58.098 0.084,17.938 -7.546,37.249 -19.439,49.197 l -0.11,0.11 c 9.836,23.337 8.237,56.037 -9.308,79.469 8.681,25.895 -0.069,57.704 -16.382,74.757 4.298,17.598 2.244,32.575 -6.148,44.632 C 440.202,511.587 389.616,512 346.839,512 l -2.845,-10e-4 C 295.707,511.982 256.188,494.401 224.434,480.274 208.477,473.175 187.613,464.387 171.783,464.096 165.243,463.976 160,458.639 160,452.098 v -213.77 c 0,-3.2 1.282,-6.271 3.558,-8.521 39.614,-39.144 56.648,-80.587 89.117,-113.111 C 267.479,101.864 272.863,79.46 278.068,57.794 282.515,39.293 291.817,0 312,0 c 24,0 72,8 72,81.452 z"
         id="path96695" />
    </symbol>
  </defs>
  <g
     inkscape:groupmode="layer"
     id="layer2"
     inkscape:label="bg-layer"
     sodipodi:insensitive="true">
    <rect
       style="display:inline;fill:#ffffff;fill-opacity:1;stroke:#000000;stroke-width:0.294967;stroke-dasharray:none;stroke-opacity:1;stop-color:#000000"
       id="rect8187"
       width="71.705032"
       height="39.705032"
       x="0.14748357"
       y="0.14748357"
       inkscape:label="background" />
  </g>
  <g
     inkscape:label="content-layer"
     inkscape:groupmode="layer"
     id="layer1"
     transform="translate(-24.054968,-28.574566)">
    <g
       id="g395"
       inkscape:label="time-group"
       transform="matrix(0.90025042,0,0,0.90025042,4.0683565,8.1570338)">
      <text
         xml:space="preserve"
         x="31.955069"
         y="44.460495"
         id="text8033-0"
         inkscape:label="time-text"><tspan
           sodipodi:role="line"
           id="tspan8031-1"
           style="font-style:normal;font-variant:normal;font-weight:bold;font-stretch:normal;font-size:5.29167px;font-family:Roboto;-inkscape-font-specification:'Roboto Bold';stroke-width:0.16899"
           x="31.955069"
           y="44.460495">120-180 min</tspan></text>
      <path
         d="m 360,64 c 13.255,0 24,-10.745 24,-24 V 24 C 384,10.745 373.255,0 360,0 H 24 C 10.745,0 0,10.745 0,24 V 40 C 0,53.255 10.745,64 24,64 24,154.965 75.016,231.734 144.842,256 75.016,280.266 24,357.035 24,448 10.745,448 0,458.745 0,472 v 16 c 0,13.255 10.745,24 24,24 h 336 c 13.255,0 24,-10.745 24,-24 V 472 C 384,458.745 373.255,448 360,448 360,357.035 308.984,280.266 239.158,256 308.984,231.734 360,154.965 360,64 Z"
         id="path478"
         inkscape:label="time-icon"
         style="fill:#000000;stroke:none"
         transform="matrix(0.00976563,0,0,0.00976563,27.075695,40.062689)" />
    </g>
    <g
       id="g467"
       inkscape:label="tags-group"
       transform="matrix(0.91736094,0,0,0.91736094,1.1653807,-0.74599262)">
      <path
         d="m 33.26029,63.909776 -1.600032,-1.964407 a 0.36247304,0.44501904 0 0 0 -0.256305,-0.130344 h -1.541402 c -0.200191,0 -0.362473,0.199239 -0.362473,0.445019 v 1.892425 a 0.36247304,0.44501904 0 0 0 0.106167,0.314675 l 1.600031,1.964407 c 0.141546,0.173789 0.371052,0.173798 0.512612,0 l 1.541402,-1.892425 c 0.141553,-0.17379 0.141553,-0.455561 0,-0.62935 z m -2.914442,-0.611354 c -0.200191,0 -0.362473,-0.199239 -0.362473,-0.445019 0,-0.245781 0.162282,-0.445019 0.362473,-0.445019 0.200191,0 0.362474,0.199238 0.362474,0.445019 0,0.24578 -0.162283,0.445019 -0.362474,0.445019 z m 3.881037,1.240704 -1.541402,1.892425 c -0.141553,0.173789 -0.371059,0.173789 -0.512612,0 l -0.0027,-0.0033 1.314411,-1.613741 c 0.128368,-0.157602 0.199058,-0.367141 0.199058,-0.590021 0,-0.222881 -0.0707,-0.43242 -0.199058,-0.590021 l -1.481933,-1.819405 h 0.367917 a 0.36247304,0.44501904 0 0 1 0.256306,0.130344 l 1.600032,1.964407 c 0.141553,0.173789 0.141553,0.45556 0,0.62935 z"
         id="path471"
         inkscape:label="tags-icon"
         style="fill:#000000;stroke:none;stroke-width:0.00836731" />
      <text
         xml:space="preserve"
         x="35.279354"
         y="65.141418"
         id="text1121"
         inkscape:label="tags-text"
         style="font-style:normal;font-variant:normal;font-weight:bold;font-stretch:normal;font-family:Roboto;-inkscape-font-specification:'Roboto Bold'"><tspan
           sodipodi:role="line"
           id="tspan1119"
           style="font-style:normal;font-variant:normal;font-weight:bold;font-stretch:normal;font-size:3.52778px;font-family:Roboto;-inkscape-font-specification:'Roboto Bold';font-variant-ligatures:normal;font-variant-caps:normal;font-variant-numeric:normal;font-variant-east-asian:normal;stroke-width:0.165896"
           x="35.279354"
           y="65.141418">Wargame, Historical, Foo, Bar, Baz, Taaaag!</tspan></text>
    </g>
    <g
       id="g414"
       inkscape:label="avgscore-group"
       transform="matrix(0.78822442,0,0,0.78822442,28.83372,13.114697)">
      <path
         id="path424"
         d="m 63.842615,47.739097 c -0.109943,-3.61e-4 -0.219932,0.05642 -0.276772,0.171548 l -0.629436,1.275453 -1.407462,0.205348 c -0.252413,0.03661 -0.353321,0.347893 -0.170273,0.526124 l 1.018449,0.992302 -0.24106,1.401722 c -0.04335,0.253377 0.223535,0.443102 0.447046,0.324603 l 1.258872,-0.66196 1.259508,0.66196 c 0.223511,0.117533 0.4904,-0.07123 0.447046,-0.324603 l -0.24106,-1.401722 1.018449,-0.992302 c 0.183048,-0.178231 0.08214,-0.489514 -0.170273,-0.526124 l -1.4081,-0.205348 -0.628798,-1.275453 c -0.05636,-0.113683 -0.166186,-0.171187 -0.276136,-0.171548 z"
         style="fill:#000000;stroke:none;stroke-width:0.00963409"
         inkscape:label="avgscore-icon"
         sodipodi:nodetypes="scccccccccccccccs" />
      <text
         xml:space="preserve"
         x="66.980988"
         y="52.424702"
         id="text116422"
         inkscape:label="avgscore-text"
         inkscape:transform-center-x="-4.5717451"
         inkscape:transform-center-y="-2.5412326"
         style="font-size:7.05556px;stroke-width:0.599228"><tspan
           sodipodi:role="line"
           id="tspan116420"
           style="font-style:normal;font-variant:normal;font-weight:bold;font-stretch:normal;font-size:7.05556px;font-family:Roboto;-inkscape-font-specification:'Roboto Bold';stroke-width:0.0994099"
           x="66.980988"
           y="52.424702">8.5</tspan></text>
    </g>
    <g
       id="g407"
       inkscape:label="weight-group"
       transform="matrix(0.90025042,0,0,0.90025042,1.8231626,13.493599)"
       style="fill:#ffffff">
      <rect
         style="fill:#ff6600;fill-opacity:1;stroke-width:0.274783"
         id="rect306"
         width="79.311264"
         height="7.4423738"
         x="25.028376"
         y="53.408436"
         inkscape:label="weight-bg" />
      <path
         d="m 32.34304,56.553401 -0.09089,0.158498 c -0.03325,0.05875 -0.104191,0.08313 -0.167365,0.05986 -0.130788,-0.04877 -0.250493,-0.118596 -0.355789,-0.20616 -0.05098,-0.04212 -0.06429,-0.116378 -0.03104,-0.174014 l 0.09089,-0.158498 c -0.07649,-0.08866 -0.13633,-0.19175 -0.176232,-0.303696 h -0.182881 c -0.0665,0 -0.124138,-0.04767 -0.135223,-0.114162 -0.02217,-0.133005 -0.02328,-0.272661 0,-0.411208 0.01114,-0.0665 0.06873,-0.115272 0.135223,-0.115272 h 0.182881 c 0.0399,-0.111941 0.09976,-0.215025 0.176232,-0.303695 l -0.09089,-0.158498 c -0.03326,-0.05764 -0.02106,-0.131897 0.03104,-0.174015 0.105293,-0.08756 0.226109,-0.15739 0.355789,-0.206158 0.06318,-0.02328 0.134115,0.0011 0.167365,0.05984 l 0.09089,0.158498 c 0.11638,-0.02106 0.234976,-0.02106 0.351356,0 l 0.09089,-0.158498 c 0.03326,-0.05875 0.10419,-0.08313 0.167364,-0.05984 0.130788,0.04877 0.250493,0.118596 0.355788,0.206158 0.05098,0.04212 0.06429,0.11638 0.03104,0.174015 l -0.09089,0.158498 c 0.07649,0.08866 0.136331,0.19175 0.176234,0.303695 h 0.182881 c 0.0665,0 0.124139,0.04767 0.135223,0.114164 0.02217,0.133004 0.02327,0.27266 0,0.411207 -0.01114,0.0665 -0.06873,0.115271 -0.135223,0.115271 h -0.182881 c -0.03989,0.111943 -0.09976,0.215026 -0.176234,0.303696 l 0.09089,0.158498 c 0.03325,0.05764 0.02106,0.131897 -0.03104,0.174014 -0.105293,0.08756 -0.226108,0.157391 -0.355788,0.20616 -0.06318,0.02328 -0.134113,-0.0011 -0.167364,-0.05986 l -0.09089,-0.158498 c -0.115272,0.02106 -0.234976,0.02106 -0.351356,0 z m -0.116379,-0.651725 c 0.426725,0.328079 0.913303,-0.158498 0.585223,-0.585224 -0.426725,-0.329189 -0.913302,0.158498 -0.585223,0.585224 z m -1.27796,1.705792 0.373524,0.186208 c 0.111941,0.06429 0.160714,0.200616 0.11638,0.322536 -0.09864,0.268228 -0.292613,0.514288 -0.472168,0.729314 -0.08201,0.09864 -0.223893,0.12303 -0.335839,0.05875 l -0.322539,-0.186208 c -0.17734,0.151848 -0.383497,0.27266 -0.608499,0.351356 v 0.372414 c 0,0.128572 -0.09199,0.239409 -0.218349,0.261577 -0.272662,0.04655 -0.558623,0.04877 -0.84126,0 -0.127463,-0.02217 -0.221674,-0.131897 -0.221674,-0.261577 V 59.06942 c -0.225001,-0.0798 -0.43116,-0.199508 -0.6085,-0.351355 l -0.322537,0.185099 c -0.110839,0.06429 -0.253819,0.03989 -0.335839,-0.05875 -0.179557,-0.215025 -0.36909,-0.461085 -0.467735,-0.728205 -0.04433,-0.120811 0.0043,-0.257142 0.116379,-0.322536 l 0.36909,-0.186207 c -0.04323,-0.231653 -0.04323,-0.469953 0,-0.702712 l -0.36909,-0.187315 c -0.111941,-0.06429 -0.161824,-0.200617 -0.116379,-0.321431 0.09864,-0.268227 0.288178,-0.514286 0.467735,-0.729311 0.08201,-0.09865 0.223892,-0.123031 0.335839,-0.05875 l 0.322537,0.186207 c 0.17734,-0.151848 0.383499,-0.272661 0.6085,-0.351356 v -0.373523 c 0,-0.127463 0.09089,-0.238301 0.217241,-0.260469 0.272661,-0.04654 0.559731,-0.04877 0.842367,-0.0011 0.127463,0.02217 0.221675,0.131898 0.221675,0.261577 v 0.372414 c 0.225002,0.07981 0.431159,0.199509 0.608499,0.351357 l 0.322539,-0.186208 c 0.110839,-0.06429 0.253818,-0.03989 0.335839,0.05875 0.179555,0.215026 0.36798,0.461084 0.466625,0.729312 0.04434,0.120813 0.0011,0.257143 -0.110839,0.322538 L 30.9487,56.903625 c 0.04323,0.232758 0.04323,0.47106 0,0.70382 z m -1.303451,0.233867 c 0.656159,-0.85345 -0.318104,-1.827714 -1.171555,-1.171555 -0.65616,0.853452 0.318104,1.827715 1.171555,1.171555 z m 2.69779,2.025006 -0.09089,0.158499 c -0.03325,0.05875 -0.104191,0.08313 -0.167365,0.05984 -0.130788,-0.04877 -0.250493,-0.118597 -0.355789,-0.206158 -0.05098,-0.04212 -0.06429,-0.116381 -0.03104,-0.174016 l 0.09089,-0.158498 c -0.07649,-0.08866 -0.13633,-0.191749 -0.176232,-0.303694 h -0.182881 c -0.0665,0 -0.124138,-0.04767 -0.135223,-0.114164 -0.02217,-0.133005 -0.02328,-0.272661 0,-0.411208 0.01114,-0.0665 0.06873,-0.115271 0.135223,-0.115271 h 0.182881 c 0.0399,-0.111943 0.09976,-0.215025 0.176232,-0.303695 l -0.09089,-0.158498 c -0.03326,-0.05764 -0.02106,-0.131898 0.03104,-0.174016 0.105293,-0.08756 0.226109,-0.157389 0.355789,-0.206158 0.06318,-0.02328 0.134115,0.0011 0.167365,0.05985 l 0.09089,0.1585 c 0.11638,-0.02106 0.234976,-0.02106 0.351356,0 l 0.09089,-0.1585 c 0.03326,-0.05875 0.10419,-0.08313 0.167364,-0.05985 0.130788,0.04877 0.250493,0.118596 0.355788,0.206158 0.05098,0.04212 0.06429,0.11638 0.03104,0.174016 l -0.09089,0.158498 c 0.07649,0.08866 0.136331,0.191749 0.176234,0.303695 h 0.182881 c 0.0665,0 0.124139,0.04767 0.135223,0.114163 0.02217,0.133005 0.02327,0.272661 0,0.411208 -0.01114,0.0665 -0.06873,0.115272 -0.135223,0.115272 h -0.182881 c -0.03989,0.111941 -0.09976,0.215024 -0.176234,0.303694 l 0.09089,0.158498 c 0.03325,0.05763 0.02106,0.131898 -0.03104,0.174016 -0.105293,0.08756 -0.226108,0.157388 -0.355788,0.206158 -0.06318,0.02328 -0.134113,-0.0011 -0.167364,-0.05984 l -0.09089,-0.158499 c -0.115272,0.02106 -0.234976,0.02106 -0.351356,0 z m -0.116379,-0.652835 c 0.426725,0.32808 0.913303,-0.158498 0.585223,-0.585224 -0.426725,-0.328078 -0.913302,0.158498 -0.585223,0.585224 z"
         id="path438"
         inkscape:label="weight-icon"
         style="fill:#ffffff;stroke:none;stroke-width:0.0110838" />
      <text
         xml:space="preserve"
         x="36.588295"
         y="57.20351"
         id="text117876"
         transform="scale(0.96828584,1.0327529)"
         inkscape:label="weight-text"
         style="font-size:5.55198px;fill:#ffffff;stroke-width:0.786895"><tspan
           sodipodi:role="line"
           id="tspan117874"
           style="font-style:normal;font-variant:normal;font-weight:bold;font-stretch:normal;font-size:5.55198px;font-family:Roboto;-inkscape-font-specification:'Roboto Bold';fill:#ffffff;stroke-width:0.140132"
           x="36.588295"
           y="57.20351">Medium-Heavy (3.8)</tspan></text>
    </g>
    <g
       id="g402"
       inkscape:label="player-n-group"
       transform="matrix(0.90025042,0,0,0.90025042,2.2217594,7.599384)">
      <text
         xml:space="preserve"
         x="37.890091"
         y="50.623714"
         id="text118758"
         transform="scale(0.96828584,1.0327529)"
         inkscape:label="player-n-text"
         style="font-size:7.05556px"><tspan
           sodipodi:role="line"
           id="tspan118754"
           style="font-style:normal;font-variant:normal;font-weight:bold;font-stretch:normal;font-size:7.05556px;font-family:Roboto;-inkscape-font-specification:'Roboto Bold';letter-spacing:-0.0449792px;stroke-width:0.178082"
           x="37.890091"
           y="50.623714">2</tspan></text>
      <path
         d="m 220,164 c 0,-55.229 44.772,-100 100,-100 55.228,0 100,44.771 100,100 0,55.229 -44.772,100 -100,100 -55.228,0 -100,-44.771 -100,-100 z M 48,208 c 0,-44.183 35.817,-80 80,-80 44.183,0 80,35.817 80,80 0,44.183 -35.817,80 -80,80 -44.183,0 -80,-35.817 -80,-80 z m 384,0 c 0,-44.183 35.817,-80 80,-80 44.183,0 80,35.817 80,80 0,44.183 -35.817,80 -80,80 -44.183,0 -80,-35.817 -80,-80 z m -22,76 c 38.66,0 70,31.34 70,70 v 70 c 0,13.255 -10.745,24 -24,24 H 184 c -13.255,0 -24,-10.745 -24,-24 v -70 c 0,-38.66 31.34,-70 70,-70 h 17.848 c 44.364,26.687 99.93,26.693 144.305,0 H 410 m -282,70 c 0,-11.975 2.081,-23.472 5.889,-34.156 C 111.959,320.996 89.767,315.723 70.278,304 H 56 C 25.072,304 0,329.072 0,360 v 32 c 0,13.255 10.745,24 24,24 h 104 z m 456,-50 h -14.278 c -19.495,11.727 -41.686,16.996 -63.611,15.844 A 101.542,101.542 0 0 1 512,354 v 62 h 104 c 13.255,0 24,-10.745 24,-24 v -32 c 0,-30.928 -25.072,-56 -56,-56 z"
         id="path445"
         inkscape:label="player-icon"
         style="fill:#000000;stroke:none"
         transform="matrix(0.01163648,0,0,0.01163648,27.261692,47.012738)" />
    </g>
    <g
       id="g105059"
       transform="matrix(0.68808007,0,0,0.68808007,17.700215,16.527802)"
       inkscape:label="recommended-n-group">
      <text
         xml:space="preserve"
         style="font-weight:bold;font-size:6.6379px;line-height:1.25;font-family:Roboto;-inkscape-font-specification:'Roboto Bold';letter-spacing:0px;word-spacing:0px;fill:#666666;fill-opacity:1;stroke-width:0.25982"
         x="54.125561"
         y="53.966618"
         id="text98414"
         inkscape:label="recommended-n-text"><tspan
           sodipodi:role="line"
           id="tspan98412"
           style="fill:#666666;fill-opacity:1;stroke-width:0.25982"
           x="54.125561"
           y="53.966618">1,2,5)</tspan></text>
      <path
         d="m 52.104547,52.752242 h 0.857511 c 0.142085,0 0.257253,-0.115175 0.257253,-0.257253 v -2.572535 c 0,-0.142084 -0.115175,-0.257254 -0.257253,-0.257254 h -0.857511 c -0.142085,0 -0.257254,0.115175 -0.257254,0.257254 v 2.572535 c 0,0.142083 0.115175,0.257253 0.257254,0.257253 z m 0.428755,-2.658286 c 0.142084,0 0.257254,0.115176 0.257254,0.257253 0,0.142085 -0.115175,0.257254 -0.257254,0.257254 -0.142083,0 -0.257253,-0.115175 -0.257253,-0.257254 0,-0.142083 0.115175,-0.257253 0.257253,-0.257253 z M 49.103256,54.2802 c 0,-0.454654 0.278369,-0.709677 0.356693,-1.013451 h -1.090358 c -0.35798,0 -0.636671,-0.297406 -0.638344,-0.622746 -8.99e-4,-0.192276 0.08088,-0.399268 0.208365,-0.527338 l 0.0011,-0.0011 c -0.105435,-0.250148 -0.0883,-0.600655 0.09977,-0.851821 -0.09305,-0.277566 7.39e-4,-0.618523 0.175597,-0.801313 -0.04607,-0.188631 -0.02405,-0.349168 0.06589,-0.478405 0.218774,-0.314322 0.760999,-0.318749 1.219521,-0.318749 l 0.03049,1.1e-5 c 0.517583,1.84e-4 0.941183,0.188633 1.281551,0.340058 0.171042,0.07609 0.394681,0.17029 0.564361,0.17341 0.0701,0.0012 0.126297,0.0585 0.126297,0.128601 v 2.29135 c 0,0.0343 -0.01379,0.06722 -0.03813,0.09134 -0.424618,0.419579 -0.607202,0.863803 -0.955234,1.212425 -0.158683,0.158982 -0.216393,0.399129 -0.272185,0.631363 -0.04767,0.19831 -0.147375,0.619488 -0.363714,0.619488 -0.257254,0 -0.771761,-0.08574 -0.771761,-0.873074 z"
         id="path1151"
         inkscape:label="recommended-icon"
         style="fill:#666666;fill-opacity:1;stroke:none;stroke-width:0.0107189" />
      <text
         xml:space="preserve"
         style="font-weight:bold;font-size:6.6379px;line-height:1.25;font-family:Roboto;-inkscape-font-specification:'Roboto Bold';letter-spacing:0px;word-spacing:0px;fill:#666666;fill-opacity:1;stroke-width:0.25982"
         x="45.358841"
         y="53.966618"
         id="text1131"
         inkscape:label="recommended-n-parenthesis"><tspan
           sodipodi:role="line"
           id="tspan1129"
           style="fill:#666666;fill-opacity:1;stroke-width:0.25982"
           x="45.358841"
           y="53.966618">(</tspan></text>
    </g>
    <g
       id="g420"
       inkscape:label="rank-group"
       transform="matrix(0.90025042,0,0,0.90025042,8.8561333,-5.3593727)">
      <g
         id="g4731"
         transform="matrix(0.7837691,0,0,0.7837691,17.097464,12.76749)"
         inkscape:label="ribbon-group">
        <path
           d="m 80.121748,56.89505 0.55843,-0.546528 c 0.166465,-0.157589 0.08884,-0.437647 -0.129502,-0.489865 l -0.760803,-0.194178 0.214471,-0.753092 c 0.06061,-0.216621 -0.143648,-0.420939 -0.360196,-0.360316 l -0.752838,0.214541 -0.194104,-0.761057 c -0.05137,-0.214932 -0.33456,-0.293538 -0.489696,-0.129546 l -0.546346,0.562765 -0.546332,-0.56275 c -0.153375,-0.162132 -0.437746,-0.08786 -0.489697,0.129544 l -0.194104,0.761058 -0.75285,-0.214543 c -0.216608,-0.06064 -0.420793,0.143751 -0.360195,0.360317 l 0.21447,0.753092 -0.760804,0.194177 c -0.21844,0.05223 -0.295906,0.332339 -0.129515,0.489854 l 0.55843,0.546529 -0.55843,0.546517 c -0.166465,0.157587 -0.08884,0.437646 0.129502,0.489863 l 0.760801,0.194179 -0.21447,0.753092 c -0.06061,0.216619 0.143649,0.420936 0.360195,0.360316 l 0.752838,-0.214543 0.194106,0.761059 c 0.0539,0.225571 0.336332,0.291668 0.489694,0.129543 l 0.546358,-0.558623 0.546334,0.558623 c 0.151798,0.163795 0.437017,0.09091 0.489694,-0.129543 l 0.194107,-0.761059 0.752838,0.214543 c 0.216595,0.06066 0.42079,-0.14375 0.360195,-0.360316 l -0.21447,-0.753092 0.760803,-0.194179 c 0.218429,-0.05224 0.295893,-0.332338 0.129499,-0.489863 z"
           id="path4726"
           inkscape:label="ribbon"
           style="fill:#ffffff;stroke:#000000;stroke-width:0.212;stroke-dasharray:none" />
        <path
           d="m 79.512208,56.895283 0.420095,-0.411141 c 0.125229,-0.118551 0.06683,-0.329233 -0.09742,-0.368516 l -0.572337,-0.146075 0.161342,-0.566536 c 0.0456,-0.162959 -0.108062,-0.316663 -0.270968,-0.271058 l -0.566344,0.161395 -0.14602,-0.572528 c -0.03865,-0.161688 -0.251683,-0.220822 -0.368388,-0.09745 l -0.411005,0.423356 -0.410994,-0.423345 c -0.115381,-0.121968 -0.329307,-0.06609 -0.368389,0.09745 l -0.14602,0.572528 -0.566353,-0.161396 c -0.16295,-0.04562 -0.316554,0.108141 -0.270967,0.271059 l 0.161341,0.566535 -0.572336,0.146076 c -0.164329,0.03929 -0.222605,0.250011 -0.09743,0.368507 l 0.420095,0.411142 -0.420095,0.411133 c -0.125229,0.11855 -0.06683,0.329232 0.09742,0.368514 l 0.572335,0.146076 -0.161341,0.566536 c -0.0456,0.162958 0.108063,0.316661 0.270967,0.271059 l 0.566344,-0.161397 0.146022,0.572529 c 0.04055,0.169692 0.253016,0.219415 0.368386,0.09745 l 0.411015,-0.42024 0.410995,0.42024 c 0.114194,0.123219 0.328758,0.06839 0.368387,-0.09745 l 0.146022,-0.572529 0.566344,0.161397 c 0.16294,0.04562 0.316552,-0.108141 0.270967,-0.271059 l -0.161341,-0.566536 0.572335,-0.146076 c 0.164321,-0.0393 0.222595,-0.250011 0.09742,-0.368514 z"
           id="path452"
           inkscape:label="ribbon"
           style="fill:#000000;stroke:none;stroke-width:0.00913544" />
      </g>
      <text
         xml:space="preserve"
         style="font-style:normal;font-variant:normal;font-weight:bold;font-stretch:normal;font-size:3.52778px;line-height:1.25;font-family:Roboto;-inkscape-font-specification:'Roboto, Bold';font-variant-ligatures:normal;font-variant-caps:normal;font-variant-numeric:normal;font-variant-east-asian:normal;letter-spacing:-0.15875px;word-spacing:0px;white-space:pre;inline-size:16.0179;display:inline;stroke-width:0.165896"
         x="90.160194"
         y="60.35387"
         id="text2521"
         inkscape:label="rank-text-line2"
         transform="translate(-1.9848104,-0.29039064)"><tspan
           x="90.160194"
           y="60.35387"
           id="tspan1162"><tspan
             style="text-align:center;text-anchor:middle"
             id="tspan1160">all time</tspan></tspan></text>
      <text
         xml:space="preserve"
         style="font-style:normal;font-variant:normal;font-weight:bold;font-stretch:normal;font-size:3.52778px;line-height:1.25;font-family:Roboto;-inkscape-font-specification:'Roboto, Bold';font-variant-ligatures:normal;font-variant-caps:normal;font-variant-numeric:normal;font-variant-east-asian:normal;letter-spacing:-0.15875px;word-spacing:0px;white-space:pre;inline-size:16.0179;display:inline;stroke-width:0.165896"
         x="90.160194"
         y="60.35387"
         id="text2788"
         inkscape:label="rank-text-line1"
         transform="translate(-1.9848104,-3.6211353)"><tspan
           x="90.160194"
           y="60.35387"
           id="tspan1166"><tspan
             style="text-align:center;text-anchor:middle"
             id="tspan1164">Top 50</tspan></tspan></text>
    </g>
    <g
       id="g388"
       inkscape:label="name-group"
       transform="translate(0.80393431)">
      <text
         xml:space="preserve"
         style="font-weight:bold;font-size:6.36931px;line-height:1;font-family:Roboto;-inkscape-font-specification:'Roboto Bold';letter-spacing:0px;word-spacing:0px;display:inline;stroke-width:0.265388"
         x="25.357952"
         y="39.94397"
         id="text11477"
         inkscape:label="name-text-line2"><tspan
           sodipodi:role="line"
           id="tspan11475"
           style="font-style:normal;font-variant:normal;font-weight:bold;font-stretch:normal;font-size:6.36931px;font-family:Roboto;-inkscape-font-specification:'Roboto, Bold';font-variant-ligatures:normal;font-variant-caps:normal;font-variant-numeric:oldstyle-nums;stroke-width:0.265388"
           x="25.357952"
           y="39.94397">1989: Dawn of Freedom</tspan></text>
      <text
         xml:space="preserve"
         style="font-weight:bold;font-size:6.36931px;line-height:1;font-family:Roboto;-inkscape-font-specification:'Roboto Bold';letter-spacing:0px;word-spacing:0px;display:inline;stroke-width:0.265388"
         x="25.357952"
         y="34.395164"
         id="text11473"
         inkscape:label="name-text-line1"><tspan
           sodipodi:role="line"
           id="tspan11471"
           style="font-style:normal;font-variant:normal;font-weight:bold;font-stretch:normal;font-size:6.36931px;font-family:Roboto;-inkscape-font-specification:'Roboto, Bold';font-variant-ligatures:normal;font-variant-caps:normal;font-variant-numeric:oldstyle-nums;stroke-width:0.265388"
           x="25.357952"
           y="34.395164">1989: Dawn of Freedom</tspan></text>
      <text
         xml:space="preserve"
         style="font-weight:bold;font-size:6.36931px;line-height:1;font-family:Roboto;-inkscape-font-specification:'Roboto Bold';letter-spacing:0px;word-spacing:0px;display:inline;stroke-width:0.265388"
         x="26.07012"
         y="37.169575"
         id="text1046"
         inkscape:label="name-text-short"><tspan
           sodipodi:role="line"
           id="tspan1044"
           style="font-style:normal;font-variant:normal;font-weight:bold;font-stretch:normal;font-size:6.36931px;font-family:Roboto;-inkscape-font-specification:'Roboto, Bold';font-variant-ligatures:normal;font-variant-caps:normal;font-variant-numeric:oldstyle-nums;stroke-width:0.265388"
           x="26.07012"
           y="37.169575">1989: Dawn of Freedom</tspan></text>
    </g>
  </g>
</svg>
